<svg width="94" height="70" viewBox="0 0 94 70" fill="none" xmlns="http://www.w3.org/2000/svg">
<g clip-path="url(#clip0_358_43)">
<path d="M82.1853 28.6814C82.541 27.3605 82.7332 25.9745 82.7332 24.5413C82.7332 15.7845 75.6574 8.687 66.9273 8.687C65.1322 8.687 63.4098 8.99215 61.8009 9.54476C60.1496 4.02316 55.0475 0 49.007 0C43.8004 0 39.2915 2.9908 37.0893 7.351C35.2852 6.53119 33.2828 6.07118 31.1744 6.07118C23.2465 6.07118 16.8185 12.5189 16.8185 20.4726C16.8185 21.7691 16.9925 23.0231 17.3119 24.2179C16.7458 24.1557 16.1722 24.1208 15.5895 24.1208C6.97743 24.1208 0 31.1195 0 39.7534C0 48.3873 6.56574 54.967 14.8161 55.3693C15.1899 62.9056 21.4015 68.9024 29.007 68.9024C31.9191 68.9024 34.6268 68.0218 36.8805 66.5127C38.5908 68.6382 41.2062 70 44.1409 70C46.7155 70 49.0448 68.954 50.7339 67.2627C53.1071 68.8492 55.9571 69.7768 59.0236 69.7768C65.7725 69.7768 71.4755 65.2967 73.3417 59.139C74.8673 59.6309 76.4944 59.8996 78.1835 59.8996C86.9197 59.8996 94 52.796 94 44.0347C94 36.6594 88.9826 30.4607 82.1853 28.6829V28.6814Z" fill="#FDF8CE"/>
</g>
<defs>
<clipPath id="clip0_358_43">
<rect width="94" height="70" fill="white"/>
</clipPath>
</defs>
</svg>
