<svg width="61" height="28" viewBox="0 0 61 28" fill="none" xmlns="http://www.w3.org/2000/svg">
<path d="M21.9085 17.6336C20.6719 19.7651 18.0444 27.2831 12.8288 27.2831C10.5479 27.2831 9.50504 25.8105 9.50504 23.058C9.50504 22.554 9.54288 22.05 9.62007 21.4685C8.34567 24.221 6.41439 27.2437 3.39941 27.2437C1.31224 27.2437 0 25.809 0 22.6314C0 21.4685 0.0771899 19.1806 0.85061 16.6635C2.62902 11.0037 4.40592 7.90363 6.56877 7.90363C7.41938 7.90363 7.76598 8.44561 7.76598 9.4552C7.76598 11.9754 6.02844 14.5699 6.02844 16.8578C6.02844 17.9418 6.37504 18.6007 7.65095 18.6007C9.0419 18.6007 10.2406 17.8264 10.8975 15.8877L10.9353 15.7344C12.52 10.6576 14.1032 7.90514 16.0753 7.90514C16.8472 7.90514 17.2725 8.33175 17.2725 9.45672C17.2725 11.6277 15.532 14.5714 15.532 16.5117C15.532 17.9843 16.4598 18.6432 17.5026 18.6432C18.662 18.6432 19.396 17.8279 20.1679 16.6665C20.787 15.7359 22.3323 16.8988 21.9085 17.6351H21.91L21.9085 17.6336Z" fill="#F6A09E"/>
<path d="M18.8936 24.4548C18.8936 22.633 19.0873 19.8425 20.168 16.6635C21.7526 11.8964 23.3358 7.90362 24.8826 7.90362C25.7711 7.90362 26.0798 8.60198 26.0798 9.37625C26.0798 10.6925 26.9305 11.3529 28.167 10.1126C29.5973 8.71736 31.1411 7.90362 32.8424 7.90362C34.7358 7.90362 35.8165 8.94964 36.2039 10.3448C36.319 10.8489 36.5914 11.0037 37.1696 10.3448C38.6377 8.71736 40.2996 7.82468 42.1537 7.82468C45.1686 7.82468 46.2871 9.45216 46.2871 11.3909C46.2871 13.4434 45.0506 14.6853 45.0506 16.6225C45.0506 17.9797 45.6318 18.6371 46.944 18.6371C48.1034 18.6371 48.8375 17.8219 49.6094 16.6605C50.2284 15.7298 51.7737 16.8927 51.3469 17.629C50.1103 19.7606 47.4828 27.2786 42.2672 27.2786C39.7956 27.2786 38.945 25.3793 38.945 23.1704C38.945 20.2251 40.5675 17.629 40.5675 16.0395C40.5675 15.1484 39.9893 14.6823 39.0993 14.6823C36.8593 14.6823 34.925 17.8978 34.925 20.8066C34.925 21.9316 35.1959 22.3172 35.1959 23.4421C35.1959 25.0696 34.6556 27.2027 31.7556 27.2027C29.9772 27.2027 28.665 26.3874 28.665 23.8308C28.665 20.8855 30.5963 18.25 30.5963 16.2748C30.5963 15.2288 30.0151 14.7643 29.1281 14.7643C26.8881 14.7643 24.9538 17.9797 24.9538 21.4306V23.1734C24.9538 25.1501 24.4513 27.2816 21.7072 27.2816C19.891 27.2816 18.886 26.0807 18.886 24.4517H18.892L18.8936 24.4548Z" fill="#F6A09E"/>
<path d="M59.1553 16.665C58.3834 17.8279 57.6493 18.6022 56.49 18.6022C55.4471 18.6022 54.7509 17.9433 54.7509 16.665C54.7509 14.5714 56.49 12.0148 56.49 9.648C56.49 8.40917 55.9875 7.90514 55.1747 7.90514C52.9725 7.90514 51.3878 11.0447 49.6109 16.665C49.0327 18.5248 48.6453 20.6198 48.6453 22.4401C48.6453 25.1516 49.6109 27.2846 52.2006 27.2846C57.1847 27.2846 59.6578 19.6877 60.8928 17.5941C61.2803 16.8973 59.7713 15.7344 59.1553 16.6635V16.665Z" fill="#F6A09E"/>
<path d="M60.3177 3.13959C60.0846 5.54134 58.4999 6.31561 56.4915 6.31561C54.6359 6.31561 53.092 5.61877 53.092 3.56619C53.092 0.813743 54.8311 0 56.9546 0C58.9252 0 60.5099 0.736316 60.3192 3.13959H60.3177Z" fill="#B5D782"/>
</svg>
