<svg width="329" height="298" viewBox="0 0 329 298" fill="none" xmlns="http://www.w3.org/2000/svg">
<g clip-path="url(#clip0_183_389)">
<path d="M161.243 9.70996C163.379 11.2812 166.36 12.369 166.964 14.2223C167.488 15.8742 165.393 18.3721 164.346 20.7894C162.734 19.1376 159.672 18.493 159.551 16.2368C159.471 14.3029 160.961 12.1676 161.284 9.70996H161.243Z" fill="#FDF8CE"/>
<path d="M151.367 21.9166C153.18 22.803 154.752 21.9569 155.88 21.0303C156.847 20.2245 157.612 20.3454 158.257 20.8691C160.755 22.8433 163.414 24.6966 163.253 28.4435C163.172 30.1759 163.172 32.4321 165.549 32.3112C168.007 32.1903 167.644 29.8536 167.402 28.2017C166.717 23.7297 168.531 19.9425 170.182 15.9942C170.988 14.1006 174.453 14.302 173.567 11.6832C172.68 9.10475 170.061 11.1998 168.248 10.2328C164.703 8.33925 162.608 5.51902 161.198 1.97359C160.714 0.764921 160.271 -0.363171 158.781 0.0397189C157.209 0.482898 157.532 1.89301 157.652 3.06139C157.733 3.70602 158.136 4.35064 158.176 4.99527C158.418 9.10474 158.579 13.5768 155.195 16.3165C153.14 17.9683 152.133 19.6202 151.408 21.9166H151.367Z" fill="#FDF8CE"/>
<path d="M197.098 40.6504C196.856 38.3136 195.043 38.2733 193.754 39.2C191.216 41.0533 189.564 39.5626 187.872 38.1524C186.663 37.1452 185.454 36.0977 184.85 34.4861C184.447 33.3983 183.279 32.9149 182.191 33.3983C181.103 33.8818 180.861 34.7682 181.345 36.0574C182.352 38.5553 181.748 41.0533 180.62 43.3094C180.176 44.2361 180.136 45.8476 178.444 45.6462C176.913 45.485 175.1 45.3239 175.422 47.4995C175.624 48.9499 176.913 49.9571 178.726 50.2794C182.956 50.9643 186.582 52.6162 187.348 57.5315C187.549 58.9013 188.476 59.2639 189.644 59.1027C191.175 58.9013 191.578 57.7732 191.377 56.4839C190.49 50.9241 191.86 46.17 196.292 42.5037C196.856 42.0202 197.098 41.4964 197.098 40.6907V40.6504Z" fill="#FEFEFE"/>
<path d="M120.735 36.5811C120.896 38.5149 120.694 39.8848 120.251 41.3352C119.123 45.0015 117.028 47.9023 114.006 50.1988C113.16 50.8434 112.234 51.7297 113.08 52.8578C113.765 53.8248 114.651 53.2204 115.537 52.8175C121.097 50.3196 124.965 52.8981 125.368 59.1832C125.448 60.5933 125.126 63.0107 127.342 62.8898C129.357 62.7689 129.477 60.5127 129.558 58.8206C129.598 57.9342 129.074 57.0479 128.954 56.1212C128.47 52.4549 130.565 48.3052 133.547 47.2577C134.473 46.9353 136.044 47.2979 135.964 45.8475C135.883 44.6792 134.433 44.5583 133.466 44.236C129.236 42.9064 125.771 40.61 124.28 36.2185C123.797 34.8486 123.958 32.9551 121.822 33.3982C119.687 33.8817 120.694 35.6947 120.735 36.5811Z" fill="#FEFEFE"/>
<path d="M163.654 75.7422C202.21 76.3062 242.943 80.7783 282.466 93.4694C285.367 94.396 288.348 95.1615 291.048 96.5313C300.596 101.326 310.83 102.212 321.224 102.333C323.923 102.333 328.154 101.366 328.839 103.904C329.806 107.329 325.132 107.53 322.916 109.061C319.653 111.317 316.107 113.171 312.602 115.064C311.232 115.789 310.709 116.555 310.95 118.167C319.854 176.747 298.582 223.361 253.821 260.226C230.977 279.04 204.467 290.563 175.338 295.196C129.489 302.529 86.9838 293.947 50.0388 264.818C22.884 243.385 6.4461 215.142 1.24882 180.614C-1.53112 162.162 0.725064 144.233 4.14963 126.023C6.04321 115.991 12.3283 111.277 19.258 106.563C36.2197 95.0809 55.5181 89.1181 75.3 84.6461C96.774 79.8114 118.53 77.1926 140.528 76.3868C147.337 76.1451 154.146 75.9839 163.654 75.7422ZM8.82315 123.686C8.50084 124.452 8.13824 125.096 7.9368 125.862C4.02876 142.058 2.69923 158.375 4.55252 174.974C7.85622 204.345 19.6609 229.888 40.5306 250.596C76.3072 286.172 120.222 298.339 169.455 291.973C203.379 287.582 233.515 273.642 258.776 250.355C293.264 218.526 311.232 179.527 308.251 131.905C308.009 127.916 307.808 123.807 306.116 119.697C295.077 130.253 281.66 135.652 267.761 140.043C233.998 150.72 199.148 153.661 164.057 154.265C138.151 154.709 112.366 153.016 86.7421 148.867C59.5067 144.475 32.7951 138.633 8.82315 123.646V123.686ZM320.781 105.556C319.371 105.556 317.92 105.717 316.551 105.556C310.628 104.71 304.343 106.12 298.783 103.904C258.333 87.7886 215.989 81.705 172.84 80.174C154.025 79.4891 135.21 80.2948 116.475 82.269C94.3164 84.6058 72.5604 88.4735 51.4489 95.7255C37.2672 100.601 23.851 106.765 12.288 116.515C8.86344 119.375 8.82315 119.415 12.6909 121.873C20.7084 126.909 29.3705 130.616 38.3147 133.597C74.2525 145.603 111.52 149.27 149.069 150.277C169.617 150.841 190.124 149.673 210.55 147.336C230.534 145.039 250.235 141.655 269.332 135.209C282.224 130.858 294.835 125.862 304.142 115.185C305.028 114.178 306.559 113.493 307.888 113.09C312.723 111.64 316.591 108.497 320.781 105.637V105.556Z" fill="#0B0B0B"/>
<path d="M151.375 21.9166C152.059 19.6201 153.107 17.9683 155.162 16.3164C158.546 13.5768 158.385 9.10471 158.143 4.99523C158.143 4.35061 157.7 3.74627 157.619 3.06136C157.458 1.89298 157.176 0.482861 158.747 0.039682C160.278 -0.403497 160.681 0.724595 161.165 1.97355C162.575 5.51899 164.67 8.33922 168.215 10.2328C170.028 11.1997 172.647 9.10471 173.533 11.6832C174.42 14.302 170.955 14.1005 170.149 15.9941C168.497 19.9424 166.684 23.7296 167.369 28.2017C167.611 29.8133 167.974 32.1903 165.516 32.3112C163.139 32.432 163.139 30.1759 163.219 28.4434C163.381 24.6966 160.722 22.803 158.224 20.8691C157.579 20.3453 156.814 20.2245 155.847 21.0303C154.719 21.9569 153.188 22.7627 151.334 21.9166H151.375ZM161.245 9.70904C160.923 12.1264 159.432 14.302 159.513 16.2359C159.634 18.5323 162.736 19.1367 164.307 20.7885C165.355 18.4115 167.49 15.8733 166.926 14.2214C166.322 12.3681 163.34 11.2803 161.205 9.70904H161.245Z" fill="#0B0B0B"/>
<path d="M197.09 40.65C197.09 41.4558 196.848 42.0198 196.284 42.463C191.852 46.1293 190.483 50.8834 191.369 56.4433C191.57 57.7728 191.167 58.8606 189.636 59.0621C188.468 59.2232 187.541 58.8606 187.34 57.4908C186.575 52.5755 182.949 50.9237 178.718 50.2388C176.905 49.9567 175.616 48.9092 175.414 47.4588C175.132 45.3235 176.905 45.4444 178.436 45.6055C180.128 45.807 180.169 44.1551 180.612 43.2688C181.74 40.9723 182.344 38.5147 181.337 36.0167C180.813 34.7678 181.055 33.8411 182.183 33.3577C183.271 32.9145 184.439 33.3577 184.842 34.4455C185.446 36.057 186.615 37.1046 187.864 38.1118C189.556 39.5219 191.208 41.0126 193.746 39.1593C194.995 38.2326 196.848 38.2326 197.09 40.6097V40.65ZM187.743 49.8359C188.347 48.184 188.992 46.5725 189.516 44.9609C190.402 42.3018 187.582 43.0673 186.695 42.0198C186.172 41.4155 185.003 40.2874 184.48 41.4558C183.714 43.1076 183.15 44.8803 182.143 46.4516C183.231 47.1365 184.318 47.8617 185.406 48.5466C186.212 49.0301 187.018 49.433 187.743 49.8359Z" fill="#0B0B0B"/>
<path d="M120.761 36.5799C120.721 35.6936 119.714 33.8806 121.849 33.3971C123.944 32.9136 123.823 34.8475 124.307 36.2173C125.838 40.6088 129.302 42.865 133.492 44.2348C134.5 44.5572 135.95 44.678 135.99 45.8464C136.071 47.2968 134.5 46.8939 133.573 47.2565C130.592 48.304 128.497 52.4538 128.98 56.1201C129.101 57.0468 129.625 57.9331 129.584 58.8195C129.504 60.5116 129.383 62.7678 127.368 62.8887C125.153 63.0095 125.475 60.5922 125.394 59.1821C124.991 52.9373 121.164 50.3185 115.564 52.8164C114.677 53.2193 113.791 53.8236 113.106 52.8567C112.26 51.7286 113.227 50.802 114.033 50.1976C117.055 47.9011 119.15 45.0003 120.278 41.334C120.721 39.8836 120.922 38.5138 120.761 36.5799ZM123.541 42.1801C122.413 44.396 121.325 46.6119 120.157 48.9084C122.453 49.5127 124.427 50.2782 126.079 51.648C127.906 48.0489 127.06 44.8929 123.541 42.1801Z" fill="#0B0B0B"/>
<path d="M8.80751 123.686C32.7795 138.673 59.5314 144.475 86.7264 148.907C112.35 153.056 138.175 154.748 164.041 154.305C199.133 153.701 233.983 150.76 267.745 140.083C281.645 135.692 295.061 130.293 306.1 119.737C307.792 123.847 307.994 127.956 308.235 131.945C311.217 179.526 293.288 218.566 258.76 250.395C233.499 273.682 203.363 287.622 169.44 292.013C120.247 298.379 76.3319 286.171 40.515 250.636C19.6453 229.887 7.84058 204.384 4.53688 175.014C2.68358 158.415 4.01312 142.057 7.92115 125.902C8.08231 125.176 8.4852 124.491 8.80751 123.726V123.686Z" fill="#FDF8CE"/>
<path d="M320.783 105.556C316.593 108.417 312.725 111.6 307.89 113.01C306.52 113.413 305.03 114.098 304.143 115.105C294.837 125.781 282.186 130.777 269.334 135.128C250.237 141.575 230.535 144.999 210.552 147.255C190.085 149.592 169.618 150.72 149.071 150.196C111.481 149.189 74.2543 145.523 38.3165 133.517C29.3723 130.535 20.7102 126.829 12.6927 121.793C8.82496 119.375 8.86524 119.295 12.2898 116.434C23.8528 106.725 37.3093 100.52 51.4507 95.6452C72.5622 88.3931 94.3585 84.5254 116.477 82.1886C135.212 80.2145 154.027 79.4087 172.841 80.0936C215.991 81.6649 258.335 87.7082 298.785 103.824C304.345 106.04 310.63 104.63 316.552 105.476C317.922 105.677 319.373 105.476 320.783 105.476V105.556ZM168.168 88.796C162.689 88.796 157.209 88.5543 151.73 88.8363C136.984 89.6421 122.238 90.2867 107.533 91.8983C100.805 92.6235 94.1168 93.5904 87.4288 94.5171C80.9826 95.4034 74.6572 96.8941 68.2512 98.0625C58.2193 99.8755 48.4693 102.535 40.0086 108.135C34.0056 112.123 31.83 117.401 39.8072 122.719C45.6894 126.627 52.5385 128.722 59.4279 130.253C67.4455 132.026 75.5838 133.396 83.8028 134.282C92.6664 135.249 101.449 136.7 110.394 136.74C129.45 136.861 148.507 136.941 167.564 136.901C178.482 136.901 189.36 136.458 200.278 135.29C218.005 133.396 235.692 131.502 252.976 127.03C260.792 125.016 268.689 122.881 275.095 117.442C280.292 113.01 279.97 108.578 274.692 104.307C269.213 99.8352 262.605 97.9013 256.079 96.733C243.992 94.5573 231.784 92.8249 219.536 91.5357C202.454 89.7227 185.291 89.4809 168.128 88.7557L168.168 88.796Z" fill="#FDF8CE"/>
<path d="M187.751 49.8343C187.026 49.4314 186.18 48.9882 185.415 48.545C184.327 47.8601 183.239 47.1752 182.151 46.45C183.158 44.8787 183.723 43.106 184.488 41.4541C185.012 40.2858 186.18 41.4541 186.704 42.0182C187.59 43.0657 190.411 42.3002 189.524 44.9593C189 46.5708 188.356 48.1421 187.751 49.8343Z" fill="#FDF8CE"/>
<path d="M123.526 42.1816C127.071 44.8944 127.917 48.0504 126.064 51.6496C124.412 50.2797 122.438 49.5142 120.142 48.9099C121.31 46.6134 122.398 44.3975 123.526 42.1816Z" fill="#FDF8CE"/>
<path d="M168.156 88.7944C185.279 89.4793 202.442 89.7614 219.565 91.5744C231.812 92.8636 244.02 94.596 256.107 96.7716C262.674 97.94 269.241 99.8739 274.72 104.346C279.958 108.617 280.28 113.048 275.123 117.48C268.757 122.919 260.82 125.014 253.004 127.069C235.72 131.581 218.034 133.435 200.306 135.328C189.428 136.497 178.51 136.899 167.592 136.94C148.535 136.94 129.478 136.859 110.422 136.779C101.477 136.738 92.6945 135.288 83.8309 134.321C75.612 133.435 67.5139 132.025 59.4561 130.292C52.5666 128.761 45.7175 126.666 39.8353 122.758C31.8581 117.44 34.0337 112.162 40.0368 108.173C48.4975 102.573 58.2474 99.9142 68.2794 98.1012C74.6853 96.9328 81.0107 95.4421 87.4569 94.5557C94.1449 93.6291 100.873 92.6622 107.561 91.937C122.226 90.3254 137.012 89.6808 151.758 88.875C157.197 88.593 162.717 88.8347 168.196 88.8347L168.156 88.7944Z" fill="#B5D782"/>
</g>
<defs>
<clipPath id="clip0_183_389">
<rect width="329" height="297.695" fill="white"/>
</clipPath>
</defs>
</svg>
