<svg width="30" height="31" viewBox="0 0 30 31" fill="none" xmlns="http://www.w3.org/2000/svg">
<path d="M23.4921 21.7044H10.5215C9.20794 21.7044 8.09092 20.8398 7.80532 19.6021L4.10727 3.57056C4.05038 3.32476 3.829 3.15345 3.56876 3.15345H1.09363V0.999969H3.56876C4.88237 0.999969 5.99939 1.86463 6.28498 3.10234L6.96376 6.04598L25.948 5.7632C26.8116 5.74906 27.612 6.11287 28.1533 6.75837C28.6947 7.40333 28.8952 8.23807 28.7042 9.04726L26.2055 19.6162C25.9148 20.8458 24.7989 21.705 23.4926 21.705L23.4921 21.7044ZM7.4589 8.19239L9.98247 19.1338C10.0394 19.3796 10.2607 19.5509 10.521 19.5509H23.4915C23.7506 19.5509 23.972 19.3807 24.0294 19.1366L26.5282 8.56762C26.58 8.34792 26.482 8.18859 26.4189 8.11354C26.3559 8.0385 26.215 7.91505 25.9813 7.91614L7.45777 8.19185L7.4589 8.19239Z" fill="#FDF8CE" stroke="#FDF8CE"/>
<path d="M10.6995 29.9807C9.12116 29.9807 7.8374 28.7413 7.8374 27.2176C7.8374 25.6938 9.12116 24.4545 10.6995 24.4545C12.2779 24.4545 13.5616 25.6938 13.5616 27.2176C13.5616 28.7413 12.2779 29.9807 10.6995 29.9807ZM10.6995 26.608C10.3514 26.608 10.0681 26.8815 10.0681 27.2176C10.0681 27.5536 10.3514 27.8272 10.6995 27.8272C11.0476 27.8272 11.331 27.5536 11.331 27.2176C11.331 26.8815 11.0476 26.608 10.6995 26.608Z" fill="#FDF8CE" stroke="#FDF8CE"/>
<path d="M24.2215 29.9807C22.6431 29.9807 21.3594 28.7413 21.3594 27.2176C21.3594 25.6938 22.6431 24.4545 24.2215 24.4545C25.7999 24.4545 27.0836 25.6938 27.0836 27.2176C27.0836 28.7413 25.7999 29.9807 24.2215 29.9807ZM24.2215 26.608C23.8734 26.608 23.59 26.8815 23.59 27.2176C23.59 27.5536 23.8734 27.8272 24.2215 27.8272C24.5696 27.8272 24.853 27.5536 24.853 27.2176C24.853 26.8815 24.5696 26.608 24.2215 26.608Z" fill="#FDF8CE" stroke="#FDF8CE"/>
</svg>
