<svg width="36" height="36" viewBox="0 0 36 36" fill="none" xmlns="http://www.w3.org/2000/svg">
<circle cx="18.1729" cy="18.1729" r="17.8271" fill="#FDF8CE"/>
<path d="M24.6404 14.1636L20.7251 17.9622L24.5239 21.8773C25.2867 22.6634 25.2677 23.9195 24.4816 24.6823C23.6955 25.445 22.4394 25.426 21.6766 24.64L17.8778 20.7249L13.9621 24.5235C13.176 25.2863 11.9204 25.2673 11.1571 24.4808C10.3943 23.6947 10.4133 22.4386 11.1994 21.6758L15.1146 17.8772L11.3158 13.962C10.553 13.176 10.572 11.9199 11.3581 11.1571C12.1442 10.3943 13.4003 10.4134 14.1631 11.1994L17.9619 15.1145L21.8772 11.3159C22.6633 10.5531 23.9194 10.5721 24.6822 11.3582C25.445 12.1442 25.426 13.4003 24.6399 14.1631L24.6404 14.1636Z" fill="#F6A09E"/>
</svg>
