<svg width="19" height="19" viewBox="0 0 19 19" fill="none" xmlns="http://www.w3.org/2000/svg">
<circle cx="9.17289" cy="9.17289" r="9.17289" fill="#FDF8CE"/>
<g clip-path="url(#clip0_57_691)">
<path d="M14.874 9.3367L9.94584 13.5097C9.48404 13.8429 8.85946 13.8429 8.39696 13.5104L3.46878 9.3367C3.15929 9.07471 3 8.70094 3 8.32438C3 8.02187 3.1027 7.71726 3.31369 7.46855C3.78666 6.90964 4.62293 6.84047 5.18184 7.31345L8.31452 9.96617C8.80916 10.3854 9.53364 10.3854 10.0276 9.96617L13.1603 7.31345C13.4097 7.10246 13.7136 6.99976 14.0161 6.99976C14.3927 6.99976 14.7664 7.15905 15.0284 7.46855C15.5021 8.02676 15.4322 8.86372 14.874 9.3367Z" fill="#F6A09E"/>
</g>
<defs>
<clipPath id="clip0_57_691">
<rect width="12.3428" height="6.76" fill="white" transform="translate(3 7)"/>
</clipPath>
</defs>
</svg>
