<svg width="37" height="31" viewBox="0 0 37 31" fill="none" xmlns="http://www.w3.org/2000/svg">
<path d="M35.6939 21.8578C35.3226 21.5615 34.8836 21.4054 34.4282 21.4054C33.7348 21.4054 33.0763 21.7741 32.6701 22.3962C31.2956 24.4931 26.8665 25.7711 23.3769 25.0766C21.8629 24.7758 20.4782 24.1786 19.0216 23.5498L18.8985 23.4955C17.604 22.9481 16.1865 22.3984 14.5884 22.0795C9.34686 21.0344 3.38118 23.0476 1.01172 26.6646C0.312171 27.7322 0.529627 29.2274 1.49997 30.001C1.87129 30.2973 2.31031 30.4534 2.76573 30.4534C3.45913 30.4534 4.11766 30.0847 4.5259 29.4627C5.90244 27.3658 10.3316 26.0878 13.8191 26.7822C15.331 27.083 16.7158 27.6802 18.1744 28.309L18.2974 28.3633C19.5919 28.9107 21.0095 29.4604 22.6076 29.7793C27.8512 30.8267 33.8148 28.8112 36.1863 25.192C36.5248 24.674 36.6622 24.0429 36.5679 23.4118C36.4756 22.783 36.1658 22.2288 35.698 21.8556L35.6939 21.8578Z" fill="#FDF8CE"/>
<path d="M35.6935 11.154C35.3222 10.8577 34.8831 10.7016 34.4277 10.7016C33.7343 10.7016 33.0758 11.0703 32.6696 11.6924C31.2951 13.7892 26.866 15.0673 23.3764 14.3728C21.8624 14.072 20.4777 13.4748 19.017 12.8437L18.8981 12.7917C17.6036 12.2443 16.186 11.6946 14.5879 11.3757C9.34434 10.3306 3.3807 12.3438 1.01125 15.9608C0.670706 16.4788 0.535309 17.1099 0.627625 17.741C0.719942 18.3698 1.02971 18.924 1.4995 19.2995C1.87082 19.5958 2.30983 19.7519 2.76526 19.7519C3.45866 19.7519 4.11718 19.3832 4.52543 18.7611C5.90196 16.6643 10.329 15.3862 13.8186 16.0807C15.3326 16.3815 16.7173 16.9787 18.178 17.6098L18.297 17.6618C19.5914 18.2092 21.009 18.7589 22.6071 19.0778C27.8486 20.1229 33.8143 18.1097 36.1858 14.4905C36.5243 13.9725 36.6618 13.3414 36.5674 12.7103C36.4751 12.0814 36.1653 11.5272 35.6976 11.154H35.6935Z" fill="#FDF8CE"/>
<path d="M1.49709 8.59784C1.86841 8.89416 2.30742 9.05024 2.76285 9.05024C3.45625 9.05024 4.11477 8.68153 4.52302 8.05948C5.89956 5.96261 10.3287 4.68458 13.8162 5.37901C15.3281 5.67986 16.7129 6.27703 18.1715 6.90586L18.2946 6.96015C19.589 7.50755 21.0066 8.05722 22.6047 8.37616C27.8483 9.42347 33.8119 7.40803 36.1834 3.78882C36.5219 3.27082 36.6594 2.63973 36.565 2.00863C36.4727 1.37979 36.1629 0.8256 35.6952 0.45237C35.3238 0.156048 34.8848 -3.05176e-05 34.4294 -3.05176e-05C33.736 -3.05176e-05 33.0775 0.368676 32.6713 0.990727C31.2968 3.0876 26.8677 4.36563 23.3781 3.6712C21.8641 3.37035 20.4794 2.77318 19.0228 2.14435L18.8997 2.09006C17.6053 1.54265 16.1877 0.992988 14.5896 0.674046C9.34808 -0.370999 3.3824 1.64218 1.01294 5.25913C0.313392 6.32679 0.530848 7.82197 1.5012 8.59558L1.49709 8.59784Z" fill="#FDF8CE"/>
</svg>
