<svg width="237" height="75" viewBox="0 0 237 75" fill="none" xmlns="http://www.w3.org/2000/svg">
<path d="M6.91512 30.4243C2.43852 30.4243 0.663314 27.144 0.663314 23.941C0.663314 20.7765 2.70866 17.6506 5.79597 17.6506C6.1047 17.6506 6.37484 17.8435 6.37484 18.1136C6.37484 19.8117 7.80272 20.9694 9.61652 20.9694C11.739 20.9694 14.1703 19.3872 16.4472 14.3703C17.1032 12.6337 17.8365 10.6655 18.4925 9.00608C18.9942 7.65538 19.8432 7.15369 21.001 7.15369C22.6218 7.15369 23.0849 7.96411 22.699 9.23763C22.0429 11.1286 21.657 12.4021 21.5413 13.3283C21.4641 14.2545 22.0815 14.3703 23.0077 14.3703C25.4004 14.3703 27.5615 12.2863 27.5615 9.54636C27.5615 6.42046 24.6672 5.26271 20.7308 5.26271C15.6368 5.26271 12.8968 7.84834 12.8968 10.3182C12.8968 11.3602 13.5142 12.132 14.3633 12.132C15.0579 13.83 13.0512 17.1489 9.30779 17.1489C6.14329 17.1489 4.48386 14.6018 4.48386 11.7847C4.48386 6.30468 10.9672 0.0914672 21.4255 0.0914672C29.877 0.0914672 33.8519 3.21737 33.8519 8.42721C33.8519 12.7109 31.5364 15.9525 27.7159 16.57C26.6353 16.7244 26.3652 16.9173 26.3652 17.1875C26.3652 17.6891 27.0984 17.5348 27.9088 19.0013C28.4877 20.0432 29.1438 20.815 30.6488 20.815C32.3854 20.815 33.3502 19.7731 34.3922 18.2294C35.0097 17.3032 36.4375 18.4224 36.1288 19.1942C34.1606 23.8638 30.3787 28.8035 26.3266 28.8035C24.1655 28.8035 22.4675 27.3756 22.1973 23.8638C22.0044 21.6641 22.1587 17.9979 20.2677 17.9979C19.6889 17.9979 19.4573 18.3066 19.2644 18.8855C16.8331 25.446 12.4337 30.4243 6.91512 30.4243ZM41.244 7.92552C39.3916 7.92552 37.8479 7.23088 37.8479 5.18553C37.8479 2.44554 39.5845 1.63512 41.7071 1.63512C43.6752 1.63512 45.2575 2.36836 45.0645 4.76103C44.833 7.15369 43.2507 7.92552 41.244 7.92552ZM36.9603 28.8035C34.3747 28.8035 33.4099 26.6809 33.4099 23.9795C33.4099 22.1657 33.7958 20.0818 34.3747 18.2294C36.1499 12.6337 37.7322 9.50777 39.9319 9.50777C40.7423 9.50777 41.244 10.0095 41.244 11.2444C41.244 13.5985 39.5074 16.1455 39.5074 18.2294C39.5074 19.5029 40.202 20.159 41.244 20.159C42.4017 20.159 43.135 19.3872 43.9068 18.2294C44.5242 17.3032 46.0293 18.461 45.6434 19.1556C44.4085 21.2396 41.9386 28.8035 36.9603 28.8035ZM47.4994 28.8035C44.4507 28.8035 43.1 26.4108 43.1 23.3235C43.1 17.612 46.4188 9.50777 53.0566 9.50777C56.1439 9.50777 55.9895 11.3602 56.9929 11.3602C57.6103 11.3602 57.6103 9.23763 59.2698 5.26271C60.7362 1.71231 62.1641 1.05625 63.3219 1.05625C64.6726 1.05625 65.2129 2.48413 64.2095 4.68384L59.8486 15.8368C58.5365 18.6539 58.961 20.1976 60.6591 20.1976C61.9712 20.1976 62.936 19.4643 63.7078 18.2294C64.2867 17.3032 65.8303 18.461 65.4444 19.1942C63.5534 22.7832 61.4309 28.8035 57.1473 28.8035C54.6774 28.8035 53.4039 26.3722 53.8284 23.1691H53.674C52.0918 26.295 49.8535 28.8035 47.4994 28.8035ZM51.0112 20.815C52.9408 20.815 54.2915 18.8083 54.2915 17.1875C54.2915 16.0683 53.674 15.1421 52.169 15.1421C50.278 15.1421 49.0045 17.0331 49.0045 18.7311C49.0045 19.8503 49.5447 20.815 51.0112 20.815ZM70.0627 28.8035C59.2185 28.8035 62.4216 9.50777 73.4973 9.50777C77.0863 9.50777 78.6686 11.8233 78.6686 14.3703C78.6686 17.1875 76.2373 20.352 72.4554 20.352C71.3748 20.352 70.3328 20.2362 69.4452 19.7345C69.1751 19.5801 68.7892 19.6959 68.7892 20.1976C68.7892 21.5483 70.603 22.2429 72.8027 22.2429C75.4269 22.2429 78.5528 20.8922 80.2894 18.2294C80.9069 17.3032 82.4505 18.461 82.026 19.1942C78.63 25.4846 74.5393 28.8035 70.0627 28.8035ZM71.452 17.4576C72.9571 17.4576 73.8447 16.2613 73.8447 15.2965C73.8447 14.4475 73.2658 13.7142 72.0695 13.7142C70.5644 13.7142 69.6382 14.8334 69.6382 15.8753C69.6382 16.7244 70.2171 17.4576 71.452 17.4576ZM97.194 28.8035C92.8717 28.8035 92.0999 24.3269 93.8365 19.3872C94.4926 17.4576 95.3416 15.1807 96.3064 12.5179C94.0681 12.5179 94.0295 9.54636 94.9171 9.54636C97.1554 9.54636 98.3903 8.0027 98.9306 6.61341C99.8568 4.37511 100.706 4.02779 101.671 4.02779C103.098 4.02779 103.6 5.22412 102.404 7.65538C101.825 8.89031 101.709 9.54636 102.442 9.54636H104.449C105.491 9.54636 105.028 13.0968 103.484 13.0968C99.8954 13.0968 99.6638 13.174 98.9306 15.7596C98.1202 18.461 99.3165 20.159 101.593 20.159C103.137 20.159 104.372 19.4258 105.144 18.2294C105.761 17.3418 107.266 18.461 106.88 19.1942C105.723 21.3939 102.751 28.8035 97.194 28.8035ZM106.887 28.8035C104.649 28.8035 103.877 27.1054 103.877 24.8286C103.877 22.8604 104.417 20.4291 105.189 18.2294C109.087 6.96073 110.862 1.05625 113.988 1.05625C115.57 1.05625 116.033 2.21399 114.914 4.68384C113.911 6.92214 112.56 9.00608 112.097 10.8199C111.673 12.4021 112.29 12.5565 113.139 11.7075C114.567 10.3182 116.111 9.50777 117.809 9.50777C120.163 9.50777 121.282 11.1286 121.282 13.0582C121.282 15.1035 120.047 16.3384 120.047 18.268C120.047 19.5801 120.587 20.1976 121.822 20.1976C122.98 20.1976 123.713 19.3872 124.485 18.2294C125.102 17.3032 126.646 18.461 126.222 19.1942C124.987 21.3167 122.362 28.8035 117.153 28.8035C114.606 28.8035 113.757 26.9511 113.757 24.79C113.757 21.857 115.57 19.2714 115.57 17.6891C115.57 16.8015 114.992 16.3384 114.104 16.3384C111.866 16.3384 109.936 19.5415 109.936 22.9762V24.7128C109.936 26.6809 109.434 28.8035 106.887 28.8035ZM130.852 28.8035C120.008 28.8035 123.211 9.50777 134.286 9.50777C137.875 9.50777 139.458 11.8233 139.458 14.3703C139.458 17.1875 137.026 20.352 133.244 20.352C132.164 20.352 131.122 20.2362 130.234 19.7345C129.964 19.5801 129.578 19.6959 129.578 20.1976C129.578 21.5483 131.392 22.2429 133.592 22.2429C136.216 22.2429 139.342 20.8922 141.078 18.2294C141.696 17.3032 143.24 18.461 142.815 19.1942C139.419 25.4846 135.328 28.8035 130.852 28.8035ZM132.241 17.4576C133.746 17.4576 134.634 16.2613 134.634 15.2965C134.634 14.4475 134.055 13.7142 132.858 13.7142C131.353 13.7142 130.427 14.8334 130.427 15.8753C130.427 16.7244 131.006 17.4576 132.241 17.4576ZM181.061 18.2294C181.524 17.5734 183.222 18.3066 182.797 19.1942C181.678 21.5483 179.787 24.4812 176.044 24.4812C175.619 24.4812 175.233 24.404 174.847 24.2497C172.956 26.8353 170.757 28.7649 168.518 28.7649C166.898 28.7649 165.277 27.4142 165.74 22.0114C163.694 27.2212 160.916 28.7649 158.793 28.7649C154.664 28.7649 153.699 23.0148 154.896 18.2294C155.86 14.1773 157.944 9.50777 160.067 9.50777C160.839 9.50777 161.263 9.93227 161.263 11.0514C161.263 13.2125 159.527 16.1455 159.527 18.4224C159.527 19.8889 160.221 20.815 161.611 20.815C163.502 20.815 164.466 19.1942 164.852 17.5348C165.277 15.6824 164.852 14.3703 165.431 12.3635C166.126 10.0095 167.168 9.50777 168.904 9.50777C170.602 9.50777 171.336 10.434 171.336 12.132C171.336 13.9844 169.252 16.4928 169.252 18.4224C169.252 19.8889 169.946 20.815 171.336 20.815C172.725 20.815 173.69 20.159 174.423 19.1942C174.191 18.0365 174.037 16.9173 174.037 15.721C174.037 12.3249 175.233 9.43058 177.896 9.43058C180.906 9.43058 180.482 13.9072 177.317 20.0818C177.549 20.1204 177.742 20.1204 177.973 20.1204C179.092 20.1204 180.134 19.5801 181.061 18.2294ZM184.255 28.8035C181.631 28.8035 180.28 26.4108 180.28 22.9762C180.28 17.612 183.599 9.50777 190.237 9.50777C193.324 9.50777 193.17 10.9742 194.173 10.9742C195.447 10.9742 195.717 9.50777 197.531 9.50777C198.534 9.50777 198.881 10.0866 198.881 10.9356C198.881 12.4021 197.878 13.5985 197.029 15.8368C195.717 18.6539 196.141 20.1976 197.839 20.1976C199.152 20.1976 200.116 19.4643 200.888 18.2294C201.467 17.3032 203.011 18.461 202.625 19.1942C200.734 22.7832 198.611 28.8035 194.328 28.8035C191.665 28.8035 190.546 26.3722 191.009 23.1691H190.854C189.311 26.295 186.995 28.8035 184.255 28.8035ZM188.114 20.815C190.121 20.815 191.472 18.8083 191.472 17.1875C191.472 15.9139 190.7 15.1421 189.465 15.1421C187.458 15.1421 186.185 17.0331 186.185 18.7311C186.185 20.0432 186.918 20.815 188.114 20.815ZM218.087 18.2294C218.55 17.5734 220.248 18.3066 219.824 19.1942C218.705 21.5483 216.814 24.4812 213.07 24.4812C212.414 24.4812 211.797 24.2883 211.257 23.9024C209.327 26.6809 207.05 28.7649 204.696 28.7649C200.567 28.7649 199.602 23.0148 200.798 18.2294C201.763 14.1773 203.847 9.50777 205.97 9.50777C206.741 9.50777 207.166 9.93227 207.166 11.0514C207.166 13.2125 205.429 16.1455 205.429 18.4224C205.429 19.8889 206.124 20.815 207.706 20.815C209.327 20.815 210.137 19.8889 210.523 19.31C210.253 18.1136 210.099 16.9559 210.099 15.721C210.099 12.3249 211.295 9.43058 213.958 9.43058C217.2 9.43058 216.737 13.83 213.611 19.8889C213.997 20.0432 214.46 20.1204 215 20.1204C216.119 20.1204 217.161 19.5801 218.087 18.2294ZM224.466 28.8035C213.622 28.8035 216.825 9.50777 227.901 9.50777C231.49 9.50777 233.072 11.8233 233.072 14.3703C233.072 17.1875 230.641 20.352 226.859 20.352C225.778 20.352 224.736 20.2362 223.849 19.7345C223.578 19.5801 223.192 19.6959 223.192 20.1976C223.192 21.5483 225.006 22.2429 227.206 22.2429C229.83 22.2429 232.956 20.8922 234.693 18.2294C235.31 17.3032 236.854 18.461 236.429 19.1942C233.033 25.4846 228.943 28.8035 224.466 28.8035ZM225.855 17.4576C227.36 17.4576 228.248 16.2613 228.248 15.2965C228.248 14.4475 227.669 13.7142 226.473 13.7142C224.968 13.7142 224.041 14.8334 224.041 15.8753C224.041 16.7244 224.62 17.4576 225.855 17.4576ZM75.9895 54.2294C76.4526 53.5734 78.1506 54.3066 77.7261 55.1942C76.607 57.5483 74.716 60.4812 70.9726 60.4812C70.5481 60.4812 70.1622 60.404 69.7763 60.2497C67.8853 62.8353 65.6856 64.7649 63.4473 64.7649C61.8265 64.7649 60.2056 63.4142 60.6687 58.0114C58.6234 63.2212 55.8448 64.7649 53.7223 64.7649C49.593 64.7649 48.6282 59.0148 49.8245 54.2294C50.7893 50.1773 52.8732 45.5078 54.9958 45.5078C55.7676 45.5078 56.1921 45.9323 56.1921 47.0514C56.1921 49.2125 54.4555 52.1455 54.4555 54.4224C54.4555 55.8889 55.1501 56.815 56.5394 56.815C58.4304 56.815 59.3952 55.1942 59.7811 53.5348C60.2056 51.6824 59.7811 50.3703 60.36 48.3635C61.0546 46.0095 62.0966 45.5078 63.8332 45.5078C65.5312 45.5078 66.2645 46.434 66.2645 48.132C66.2645 49.9844 64.1805 52.4928 64.1805 54.4224C64.1805 55.8889 64.8752 56.815 66.2645 56.815C67.6538 56.815 68.6185 56.159 69.3518 55.1942C69.1202 54.0365 68.9659 52.9173 68.9659 51.721C68.9659 48.3249 70.1622 45.4306 72.825 45.4306C75.8351 45.4306 75.4106 49.9072 72.2461 56.0818C72.4777 56.1204 72.6706 56.1204 72.9022 56.1204C74.0213 56.1204 75.0633 55.5801 75.9895 54.2294ZM82.8503 43.9255C80.9979 43.9255 79.4543 43.2309 79.4543 41.1855C79.4543 38.4455 81.1909 37.6351 83.3134 37.6351C85.2816 37.6351 86.8638 38.3684 86.6709 40.761C86.4393 43.1537 84.8571 43.9255 82.8503 43.9255ZM78.5667 64.8035C75.981 64.8035 75.0163 62.6809 75.0163 59.9795C75.0163 58.1657 75.4022 56.0818 75.981 54.2294C77.7563 48.6337 79.3385 45.5078 81.5382 45.5078C82.3486 45.5078 82.8503 46.0095 82.8503 47.2444C82.8503 49.5985 81.1137 52.1455 81.1137 54.2294C81.1137 55.5029 81.8083 56.159 82.8503 56.159C84.0081 56.159 84.7413 55.3872 85.5131 54.2294C86.1306 53.3032 87.6356 54.461 87.2497 55.1556C86.0148 57.2396 83.545 64.8035 78.5667 64.8035ZM88.4883 64.8035C84.166 64.8035 83.3942 60.3269 85.1308 55.3872C85.7869 53.4576 86.6359 51.1807 87.6007 48.5179C85.3624 48.5179 85.3238 45.5464 86.2114 45.5464C88.4497 45.5464 89.6846 44.0027 90.2249 42.6134C91.1511 40.3751 92.0001 40.0278 92.9649 40.0278C94.3928 40.0278 94.8944 41.2241 93.6981 43.6554C93.1192 44.8903 93.0035 45.5464 93.7367 45.5464H95.7435C96.7854 45.5464 96.3223 49.0968 94.7787 49.0968C91.1897 49.0968 90.9581 49.174 90.2249 51.7596C89.4145 54.461 90.6108 56.159 92.8877 56.159C94.4314 56.159 95.6663 55.4258 96.4381 54.2294C97.0556 53.3418 98.5606 54.461 98.1747 55.1942C97.017 57.3939 94.0454 64.8035 88.4883 64.8035ZM98.1817 64.8035C95.9434 64.8035 95.1715 63.1054 95.1715 60.8286C95.1715 58.8604 95.7118 56.4291 96.4836 54.2294C100.381 42.9607 102.157 37.0563 105.282 37.0563C106.865 37.0563 107.328 38.214 106.209 40.6838C105.205 42.9221 103.855 45.0061 103.391 46.8199C102.967 48.4021 103.584 48.5565 104.433 47.7075C105.861 46.3182 107.405 45.5078 109.103 45.5078C111.457 45.5078 112.576 47.1286 112.576 49.0582C112.576 51.1035 111.341 52.3384 111.341 54.268C111.341 55.5801 111.882 56.1976 113.117 56.1976C114.274 56.1976 115.008 55.3872 115.779 54.2294C116.397 53.3032 117.94 54.461 117.516 55.1942C116.281 57.3167 113.657 64.8035 108.447 64.8035C105.9 64.8035 105.051 62.9511 105.051 60.79C105.051 57.857 106.865 55.2714 106.865 53.6891C106.865 52.8015 106.286 52.3384 105.398 52.3384C103.16 52.3384 101.23 55.5415 101.23 58.9762V60.7128C101.23 62.6809 100.729 64.8035 98.1817 64.8035ZM148.981 54.2294C149.598 53.3032 151.142 54.461 150.717 55.1942C149.482 57.3167 146.858 64.8035 141.648 64.8035C139.371 64.8035 138.329 63.337 138.329 60.597C138.329 60.0953 138.368 59.5936 138.445 59.0148C137.172 61.7547 135.242 64.7649 132.232 64.7649C130.148 64.7649 128.836 63.337 128.836 60.1725C128.836 59.0148 128.913 56.7379 129.685 54.2294C131.46 48.5951 133.235 45.5078 135.396 45.5078C136.245 45.5078 136.593 46.048 136.593 47.0514C136.593 49.5599 134.856 52.1455 134.856 54.4224C134.856 55.5029 135.203 56.159 136.477 56.159C137.866 56.159 139.063 55.3872 139.719 53.4576L139.757 53.3032C141.339 48.2478 142.922 45.5078 144.89 45.5078C145.662 45.5078 146.086 45.9323 146.086 47.0514C146.086 49.2125 144.35 52.1455 144.35 54.0751C144.35 55.5415 145.276 56.1976 146.318 56.1976C147.476 56.1976 148.209 55.3872 148.981 54.2294ZM150.524 64.8035C148.71 64.8035 147.707 63.6071 147.707 61.9863C147.707 60.1725 147.9 57.3939 148.981 54.2294C150.563 49.4827 152.145 45.5078 153.689 45.5078C154.576 45.5078 154.885 46.2024 154.885 46.9742C154.885 48.2863 155.734 48.9424 156.969 47.7075C158.397 46.3182 159.941 45.5078 161.639 45.5078C163.53 45.5078 164.61 46.5497 164.996 47.939C165.112 48.4407 165.382 48.5951 165.961 47.939C167.427 46.3182 169.087 45.4306 170.939 45.4306C173.949 45.4306 175.068 47.0514 175.068 48.981C175.068 51.0263 173.833 52.2613 173.833 54.1908C173.833 55.5415 174.412 56.1976 175.724 56.1976C176.882 56.1976 177.615 55.3872 178.387 54.2294C179.005 53.3032 180.548 54.461 180.124 55.1942C178.889 57.3167 176.265 64.8035 171.055 64.8035C168.585 64.8035 167.736 62.9125 167.736 60.7128C167.736 57.7798 169.357 55.1942 169.357 53.612C169.357 52.7244 168.778 52.2613 167.89 52.2613C165.652 52.2613 163.723 55.4643 163.723 58.3587C163.723 59.4779 163.993 59.8638 163.993 60.9829C163.993 62.6038 163.452 64.7263 160.558 64.7263C158.783 64.7263 157.471 63.9159 157.471 61.3688C157.471 58.4359 159.4 55.8117 159.4 53.8435C159.4 52.8015 158.821 52.3384 157.934 52.3384C155.695 52.3384 153.766 55.5415 153.766 58.9762V60.7128C153.766 62.6809 153.264 64.8035 150.524 64.8035ZM185.246 43.9255C183.393 43.9255 181.85 43.2309 181.85 41.1855C181.85 38.4455 183.586 37.6351 185.709 37.6351C187.677 37.6351 189.259 38.3684 189.066 40.761C188.835 43.1537 187.252 43.9255 185.246 43.9255ZM180.962 64.8035C178.376 64.8035 177.412 62.6809 177.412 59.9795C177.412 58.1657 177.798 56.0818 178.376 54.2294C180.152 48.6337 181.734 45.5078 183.934 45.5078C184.744 45.5078 185.246 46.0095 185.246 47.2444C185.246 49.5985 183.509 52.1455 183.509 54.2294C183.509 55.5029 184.204 56.159 185.246 56.159C186.403 56.159 187.137 55.3872 187.908 54.2294C188.526 53.3032 190.031 54.461 189.645 55.1556C188.41 57.2396 185.94 64.8035 180.962 64.8035Z" fill="#F6A09E"/>
<path d="M41.3564 8C39.3075 8 37.6 7.22699 37.6 4.95092C37.6 1.90184 39.5209 1 41.8687 1C44.0457 1 45.7958 1.81595 45.5824 4.47853C45.3263 7.1411 43.5761 8 41.3564 8Z" fill="#B5D782"/>
<path d="M82.7564 44.6001C80.7075 44.6001 79 43.8271 79 41.551C79 38.5019 80.9209 37.6001 83.2686 37.6001C85.4456 37.6001 87.1958 38.416 86.9823 41.0786C86.7262 43.7412 84.9761 44.6001 82.7564 44.6001Z" fill="#B5D782"/>
<path d="M185.356 44.6001C183.307 44.6001 181.6 43.8271 181.6 41.551C181.6 38.5019 183.521 37.6001 185.869 37.6001C188.046 37.6001 189.796 38.416 189.582 41.0786C189.326 43.7412 187.576 44.6001 185.356 44.6001Z" fill="#B5D782"/>
</svg>
