<svg width="32" height="31" viewBox="0 0 32 31" fill="none" xmlns="http://www.w3.org/2000/svg">
<path d="M25.3796 8.95112L25.3873 8.94803L24.8891 7.81327L24.8808 7.81681L24.7347 7.54074C23.6801 5.54774 22.1049 3.89618 20.1789 2.76452C18.1821 1.59133 15.8588 0.983099 13.4633 1.00033C11.0682 1.02064 8.75768 1.66952 6.7819 2.87671C4.66409 4.17048 3.01304 6.07293 2.00734 8.37866L2.00415 8.38573C0.837225 11.1632 0.684224 14.0427 1.56158 16.7133C1.96578 17.9439 2.57961 19.1056 3.38527 20.1662C4.169 21.198 5.11442 22.1084 6.19502 22.8721C7.2747 23.6354 8.45807 24.2295 9.71176 24.638C10.997 25.0572 12.3233 25.2692 13.6537 25.2692H13.6642C16.3415 25.267 18.9512 24.3889 21.212 22.7298L21.4499 22.5554L21.6614 22.7594C22.0592 23.1442 22.6666 23.7493 23.2544 24.3346L23.264 24.3443C24.3848 25.4609 25.7801 26.851 26.9539 27.9593C28.9603 29.8538 29.3192 30 29.6065 30H29.623C29.6531 29.9995 29.6878 29.9951 29.7221 29.9876L29.7467 29.9823L29.7723 29.9805C30.2665 29.9448 30.6958 29.636 30.8931 29.1753C31.1068 28.6753 30.9945 28.1183 30.6058 27.7561L30.6013 27.7517L23.3453 20.7342L23.5312 20.5032C24.7703 18.9625 25.6075 17.0989 25.9518 15.1125C26.2962 13.1266 26.1345 11.0974 25.4837 9.24397L25.38 8.94891L25.3796 8.95112ZM23.6043 13.0975V13.105C23.6057 15.446 22.8297 17.5755 21.36 19.2624C20.0241 20.7956 18.1319 21.9246 16.0323 22.4405C15.1705 22.6526 14.2886 22.7577 13.4144 22.7577C12.1552 22.7577 10.9129 22.5395 9.77068 22.1075C7.64328 21.3031 5.9082 19.7903 4.75223 17.7323L4.74904 17.727C3.6931 15.8979 3.29712 13.8696 3.60313 11.8598C3.88812 9.99003 4.74995 8.21965 6.09545 6.7408C7.44095 5.26151 9.1468 4.20935 11.028 3.6983C11.8547 3.47391 12.7069 3.35994 13.561 3.35994C14.7887 3.35994 16.0099 3.59228 17.1919 4.05078L17.1997 4.05387C19.0375 4.72704 20.6877 5.99519 21.8436 7.62378C23.0023 9.25634 23.6276 11.1999 23.6043 13.0975Z" fill="#FDF8CE" stroke="#FDF8CE"/>
</svg>
