<svg width="997" height="78" viewBox="0 0 997 78" fill="none" xmlns="http://www.w3.org/2000/svg">
<path d="M16.0671 77.9554C4.56227 77.9554 0 69.5251 0 61.2932C0 53.1604 5.25653 45.1269 13.1909 45.1269C13.9844 45.1269 14.6786 45.6227 14.6786 46.317C14.6786 50.6809 18.3483 53.6563 23.0097 53.6563C28.4646 53.6563 34.713 49.5899 40.5646 36.6966C42.2506 32.2335 44.1351 27.1753 45.8211 22.9106C47.1104 19.4393 49.2924 18.1499 52.2678 18.1499C56.4334 18.1499 57.6235 20.2327 56.6317 23.5056C54.9457 28.3654 53.9539 31.6384 53.6563 34.0187C53.458 36.399 55.0448 36.6966 57.4252 36.6966C63.5743 36.6966 69.1284 31.3408 69.1284 24.2991C69.1284 16.2655 61.6899 13.2901 51.5735 13.2901C38.4818 13.2901 31.44 19.9352 31.44 26.2827C31.44 28.9605 33.0269 30.9441 35.2089 30.9441C36.9941 35.308 31.8367 43.8375 22.2163 43.8375C14.0835 43.8375 9.81881 37.2916 9.81881 30.0515C9.81881 15.968 26.481 0 53.3588 0C75.0792 0 85.2947 8.03357 85.2947 21.4229C85.2947 32.4318 79.3439 40.7629 69.5251 42.3498C66.7481 42.7465 66.0538 43.2424 66.0538 43.9367C66.0538 45.226 67.9382 44.8293 70.021 48.5981C71.5087 51.276 73.1948 53.2596 77.0628 53.2596C81.5259 53.2596 84.0054 50.5817 86.6832 46.6145C88.2701 44.2342 91.9398 47.1104 91.1463 49.094C86.0882 61.0948 76.3685 73.7898 65.9546 73.7898C60.4006 73.7898 56.0366 70.1202 55.3424 61.0948C54.8465 55.4416 55.2432 46.0195 50.3834 46.0195C48.8957 46.0195 48.3006 46.8129 47.8047 48.3006C41.5564 65.1612 30.2499 77.9554 16.0671 77.9554Z" fill="#F6A09E"/>
<path d="M104.292 20.1335C99.5317 20.1335 95.5645 18.3483 95.5645 13.0917C95.5645 6.04997 100.028 3.96719 105.482 3.96719C110.541 3.96719 114.607 5.85161 114.111 12.0008C113.516 18.1499 109.45 20.1335 104.292 20.1335ZM93.2833 73.7898C86.6383 73.7898 84.1588 68.3349 84.1588 61.3923C84.1588 56.7309 85.1506 51.3752 86.6383 46.6145C91.2006 32.2335 95.2669 24.1999 100.92 24.1999C103.003 24.1999 104.292 25.4892 104.292 28.663C104.292 34.713 99.8292 41.2588 99.8292 46.6145C99.8292 49.8875 101.614 51.5735 104.292 51.5735C107.268 51.5735 109.152 49.5899 111.136 46.6145C112.723 44.2342 116.591 47.2096 115.599 48.9949C112.425 54.3506 106.078 73.7898 93.2833 73.7898Z" fill="#F6A09E"/>
<path d="M120.369 73.7898C112.534 73.7898 109.062 67.6407 109.062 59.7063C109.062 45.0277 117.592 24.1999 134.651 24.1999C142.585 24.1999 142.188 28.9605 144.767 28.9605C146.354 28.9605 146.354 23.5056 150.619 13.2901C154.387 4.16556 158.057 2.47949 161.033 2.47949C164.504 2.47949 165.892 6.14915 163.314 11.8024L152.106 40.4654C148.734 47.7055 149.825 51.6727 154.189 51.6727C157.561 51.6727 160.041 49.7883 162.024 46.6145C163.512 44.2342 167.479 47.2096 166.487 49.094C161.628 58.3178 156.173 73.7898 145.164 73.7898C138.816 73.7898 135.543 67.5415 136.634 59.3096H136.238C132.171 67.3431 126.419 73.7898 120.369 73.7898ZM129.394 53.2596C134.353 53.2596 137.824 48.1022 137.824 43.9367C137.824 41.0605 136.238 38.6802 132.37 38.6802C127.51 38.6802 124.237 43.54 124.237 47.9039C124.237 50.7801 125.625 53.2596 129.394 53.2596Z" fill="#F6A09E"/>
<path d="M178.356 73.7898C150.487 73.7898 158.719 24.1999 187.183 24.1999C196.407 24.1999 200.474 30.1507 200.474 36.6966C200.474 43.9367 194.225 52.0694 184.506 52.0694C181.729 52.0694 179.051 51.7719 176.77 50.4826C176.075 50.0858 175.083 50.3834 175.083 51.6727C175.083 55.144 179.745 56.9293 185.398 56.9293C192.142 56.9293 200.176 53.458 204.639 46.6145C206.226 44.2342 210.193 47.2096 209.102 49.094C200.374 65.2604 189.861 73.7898 178.356 73.7898ZM181.927 44.631C185.795 44.631 188.076 41.5564 188.076 39.0769C188.076 36.8949 186.588 35.0105 183.514 35.0105C179.646 35.0105 177.265 37.8867 177.265 40.5646C177.265 42.7465 178.753 44.631 181.927 44.631Z" fill="#F6A09E"/>
<path d="M248.084 73.7898C236.976 73.7898 234.992 62.285 239.455 49.5899C241.141 44.631 243.323 38.7793 245.803 31.9359C240.05 31.9359 239.951 24.2991 242.232 24.2991C247.985 24.2991 251.158 20.3319 252.547 16.7614C254.927 11.009 257.109 10.1163 259.589 10.1163C263.258 10.1163 264.548 13.1909 261.473 19.4393C259.985 22.613 259.688 24.2991 261.572 24.2991H266.73C269.407 24.2991 268.217 33.4236 264.25 33.4236C255.026 33.4236 254.431 33.622 252.547 40.267C250.464 47.2096 253.539 51.5735 259.39 51.5735C263.357 51.5735 266.531 49.6891 268.515 46.6145C270.102 44.3334 273.97 47.2096 272.978 49.094C270.003 54.7473 262.366 73.7898 248.084 73.7898Z" fill="#F6A09E"/>
<path d="M272.996 73.7898C267.243 73.7898 265.26 69.4259 265.26 63.5743C265.26 58.5161 266.648 52.2678 268.632 46.6145C278.649 17.654 283.211 2.47949 291.245 2.47949C295.311 2.47949 296.501 5.45489 293.625 11.8024C291.046 17.5548 287.575 22.9106 286.385 27.572C285.294 31.6384 286.881 32.0351 289.063 29.8531C292.733 26.2827 296.7 24.1999 301.064 24.1999C307.114 24.1999 309.99 28.3654 309.99 33.3244C309.99 38.581 306.816 41.7547 306.816 46.7137C306.816 50.0858 308.205 51.6727 311.378 51.6727C314.354 51.6727 316.238 49.5899 318.222 46.6145C319.809 44.2342 323.776 47.2096 322.685 49.094C319.511 54.5489 312.767 73.7898 299.378 73.7898C292.832 73.7898 290.65 69.0292 290.65 63.4751C290.65 55.9375 295.311 49.2924 295.311 45.226C295.311 42.9449 293.823 41.7547 291.542 41.7547C285.79 41.7547 280.831 49.9867 280.831 58.8137V63.2768C280.831 68.3349 279.542 73.7898 272.996 73.7898Z" fill="#F6A09E"/>
<path d="M334.584 73.7898C306.715 73.7898 314.947 24.1999 343.411 24.1999C352.635 24.1999 356.701 30.1507 356.701 36.6966C356.701 43.9367 350.453 52.0694 340.733 52.0694C337.956 52.0694 335.278 51.7719 332.997 50.4826C332.303 50.0858 331.311 50.3834 331.311 51.6727C331.311 55.144 335.973 56.9293 341.626 56.9293C348.37 56.9293 356.404 53.458 360.867 46.6145C362.454 44.2342 366.421 47.2096 365.33 49.094C356.602 65.2604 346.089 73.7898 334.584 73.7898ZM338.155 44.631C342.023 44.631 344.304 41.5564 344.304 39.0769C344.304 36.8949 342.816 35.0105 339.741 35.0105C335.873 35.0105 333.493 37.8867 333.493 40.5646C333.493 42.7465 334.981 44.631 338.155 44.631Z" fill="#F6A09E"/>
<path d="M463.621 46.6145C464.811 44.9285 469.175 46.8129 468.084 49.094C465.208 55.144 460.348 62.6817 450.728 62.6817C449.637 62.6817 448.645 62.4833 447.653 62.0866C442.793 68.7317 437.14 73.6907 431.388 73.6907C427.222 73.6907 423.056 70.2194 424.247 56.3342C418.99 69.7235 411.849 73.6907 406.394 73.6907C395.782 73.6907 393.302 58.9129 396.377 46.6145C398.857 36.2007 404.212 24.1999 409.667 24.1999C411.651 24.1999 412.742 25.2909 412.742 28.1671C412.742 33.7212 408.279 41.2588 408.279 47.1104C408.279 50.8793 410.064 53.2596 413.634 53.2596C418.494 53.2596 420.974 49.094 421.965 44.8293C423.056 40.0687 421.965 36.6966 423.453 31.5392C425.238 25.4892 427.916 24.1999 432.379 24.1999C436.743 24.1999 438.628 26.5802 438.628 30.9441C438.628 35.7048 433.272 42.1515 433.272 47.1104C433.272 50.8793 435.057 53.2596 438.628 53.2596C442.198 53.2596 444.678 51.5735 446.562 49.094C445.967 46.1186 445.57 43.2424 445.57 40.1679C445.57 31.44 448.645 24.0015 455.488 24.0015C463.224 24.0015 462.133 35.5064 454.001 51.3752C454.596 51.4744 455.092 51.4744 455.687 51.4744C458.563 51.4744 461.241 50.0858 463.621 46.6145Z" fill="#F6A09E"/>
<path d="M471.831 73.7898C465.087 73.7898 461.616 67.6407 461.616 58.8137C461.616 45.0277 470.145 24.1999 487.204 24.1999C495.139 24.1999 494.742 27.9687 497.32 27.9687C500.593 27.9687 501.288 24.1999 505.949 24.1999C508.528 24.1999 509.42 25.6876 509.42 27.8695C509.42 31.6384 506.842 34.713 504.66 40.4654C501.288 47.7055 502.379 51.6727 506.743 51.6727C510.115 51.6727 512.594 49.7883 514.578 46.6145C516.066 44.2342 520.033 47.2096 519.041 49.094C514.181 58.3178 508.726 73.7898 497.717 73.7898C490.874 73.7898 487.998 67.5415 489.188 59.3096H488.791C484.824 67.3431 478.873 73.7898 471.831 73.7898ZM481.749 53.2596C486.907 53.2596 490.378 48.1022 490.378 43.9367C490.378 40.6638 488.394 38.6802 485.221 38.6802C480.063 38.6802 476.79 43.54 476.79 47.9039C476.79 51.276 478.675 53.2596 481.749 53.2596Z" fill="#F6A09E"/>
<path d="M558.779 46.6145C559.97 44.9285 564.334 46.8129 563.243 49.094C560.366 55.144 555.507 62.6817 545.886 62.6817C544.2 62.6817 542.613 62.1858 541.225 61.194C536.266 68.3349 530.414 73.6907 524.364 73.6907C513.752 73.6907 511.272 58.9129 514.347 46.6145C516.826 36.2007 522.182 24.1999 527.637 24.1999C529.621 24.1999 530.712 25.2909 530.712 28.1671C530.712 33.7212 526.248 41.2588 526.248 47.1104C526.248 50.8793 528.034 53.2596 532.1 53.2596C536.266 53.2596 538.348 50.8793 539.34 49.3916C538.646 46.317 538.249 43.3416 538.249 40.1679C538.249 31.44 541.324 24.0015 548.167 24.0015C556.498 24.0015 555.308 35.308 547.275 50.8793C548.266 51.276 549.457 51.4744 550.845 51.4744C553.721 51.4744 556.399 50.0858 558.779 46.6145Z" fill="#F6A09E"/>
<path d="M575.173 73.7898C547.303 73.7898 555.535 24.1999 584 24.1999C593.224 24.1999 597.29 30.1507 597.29 36.6966C597.29 43.9367 591.042 52.0694 581.322 52.0694C578.545 52.0694 575.867 51.7719 573.586 50.4826C572.892 50.0858 571.9 50.3834 571.9 51.6727C571.9 55.144 576.561 56.9293 582.215 56.9293C588.959 56.9293 596.992 53.458 601.456 46.6145C603.042 44.2342 607.01 47.2096 605.919 49.094C597.191 65.2604 586.678 73.7898 575.173 73.7898ZM578.743 44.631C582.611 44.631 584.892 41.5564 584.892 39.0769C584.892 36.8949 583.405 35.0105 580.33 35.0105C576.462 35.0105 574.082 37.8867 574.082 40.5646C574.082 42.7465 575.57 44.631 578.743 44.631Z" fill="#F6A09E"/>
<path d="M704.21 46.6145C705.4 44.9285 709.764 46.8129 708.673 49.094C705.797 55.144 700.937 62.6817 691.316 62.6817C690.225 62.6817 689.234 62.4833 688.242 62.0866C683.382 68.7317 677.729 73.6907 671.976 73.6907C667.811 73.6907 663.645 70.2194 664.835 56.3342C659.579 69.7235 652.438 73.6907 646.983 73.6907C636.371 73.6907 633.891 58.9129 636.966 46.6145C639.445 36.2007 644.801 24.1999 650.256 24.1999C652.239 24.1999 653.33 25.2909 653.33 28.1671C653.33 33.7212 648.867 41.2588 648.867 47.1104C648.867 50.8793 650.653 53.2596 654.223 53.2596C659.083 53.2596 661.562 49.094 662.554 44.8293C663.645 40.0687 662.554 36.6966 664.042 31.5392C665.827 25.4892 668.505 24.1999 672.968 24.1999C677.332 24.1999 679.216 26.5802 679.216 30.9441C679.216 35.7048 673.861 42.1515 673.861 47.1104C673.861 50.8793 675.646 53.2596 679.216 53.2596C682.787 53.2596 685.266 51.5735 687.151 49.094C686.556 46.1186 686.159 43.2424 686.159 40.1679C686.159 31.44 689.234 24.0015 696.077 24.0015C703.813 24.0015 702.722 35.5064 694.589 51.3752C695.184 51.4744 695.68 51.4744 696.275 51.4744C699.152 51.4744 701.829 50.0858 704.21 46.6145Z" fill="#F6A09E"/>
<path d="M721.842 20.1335C717.081 20.1335 713.114 18.3483 713.114 13.0917C713.114 6.04997 717.577 3.96719 723.032 3.96719C728.09 3.96719 732.157 5.85161 731.661 12.0008C731.066 18.1499 726.999 20.1335 721.842 20.1335ZM710.833 73.7898C704.188 73.7898 701.709 68.3349 701.709 61.3923C701.709 56.7309 702.7 51.3752 704.188 46.6145C708.75 32.2335 712.817 24.1999 718.47 24.1999C720.553 24.1999 721.842 25.4892 721.842 28.663C721.842 34.713 717.379 41.2588 717.379 46.6145C717.379 49.8875 719.164 51.5735 721.842 51.5735C724.817 51.5735 726.702 49.5899 728.685 46.6145C730.272 44.2342 734.14 47.2096 733.149 48.9949C729.975 54.3506 723.627 73.7898 710.833 73.7898Z" fill="#F6A09E"/>
<path d="M736.332 73.7898C725.224 73.7898 723.24 62.285 727.703 49.5899C729.389 44.631 731.571 38.7793 734.051 31.9359C728.298 31.9359 728.199 24.2991 730.48 24.2991C736.232 24.2991 739.406 20.3319 740.795 16.7614C743.175 11.009 745.357 10.1163 747.837 10.1163C751.506 10.1163 752.796 13.1909 749.721 19.4393C748.233 22.613 747.936 24.2991 749.82 24.2991H754.977C757.655 24.2991 756.465 33.4236 752.498 33.4236C743.274 33.4236 742.679 33.622 740.795 40.267C738.712 47.2096 741.787 51.5735 747.638 51.5735C751.605 51.5735 754.779 49.6891 756.763 46.6145C758.35 44.3334 762.218 47.2096 761.226 49.094C758.25 54.7473 750.614 73.7898 736.332 73.7898Z" fill="#F6A09E"/>
<path d="M761.244 73.7898C755.491 73.7898 753.508 69.4259 753.508 63.5743C753.508 58.5161 754.896 52.2678 756.88 46.6145C766.897 17.654 771.459 2.47949 779.493 2.47949C783.559 2.47949 784.749 5.45489 781.873 11.8024C779.294 17.5548 775.823 22.9106 774.633 27.572C773.542 31.6384 775.129 32.0351 777.311 29.8531C780.98 26.2827 784.948 24.1999 789.312 24.1999C795.361 24.1999 798.238 28.3654 798.238 33.3244C798.238 38.581 795.064 41.7547 795.064 46.7137C795.064 50.0858 796.452 51.6727 799.626 51.6727C802.602 51.6727 804.486 49.5899 806.47 46.6145C808.056 44.2342 812.024 47.2096 810.933 49.094C807.759 54.5489 801.015 73.7898 787.625 73.7898C781.08 73.7898 778.898 69.0292 778.898 63.4751C778.898 55.9375 783.559 49.2924 783.559 45.226C783.559 42.9449 782.071 41.7547 779.79 41.7547C774.038 41.7547 769.079 49.9867 769.079 58.8137V63.2768C769.079 68.3349 767.789 73.7898 761.244 73.7898Z" fill="#F6A09E"/>
<path d="M891.797 46.6145C893.384 44.2342 897.351 47.2096 896.26 49.094C893.086 54.5489 886.342 73.7898 872.953 73.7898C867.101 73.7898 864.423 70.021 864.423 62.9792C864.423 61.6899 864.522 60.4006 864.721 58.9129C861.448 65.9546 856.489 73.6907 848.753 73.6907C843.397 73.6907 840.025 70.021 840.025 61.8882C840.025 58.9129 840.223 53.0612 842.207 46.6145C846.769 32.1343 851.331 24.1999 856.886 24.1999C859.068 24.1999 859.96 25.5884 859.96 28.1671C859.96 34.6138 855.497 41.2588 855.497 47.1104C855.497 49.8875 856.39 51.5735 859.663 51.5735C863.233 51.5735 866.308 49.5899 867.994 44.631L868.093 44.2342C872.159 31.2417 876.226 24.1999 881.284 24.1999C883.267 24.1999 884.358 25.2909 884.358 28.1671C884.358 33.7212 879.895 41.2588 879.895 46.2178C879.895 49.9867 882.276 51.6727 884.953 51.6727C887.929 51.6727 889.813 49.5899 891.797 46.6145Z" fill="#F6A09E"/>
<path d="M895.764 73.7898C891.103 73.7898 888.524 70.7153 888.524 66.5497C888.524 61.8883 889.02 54.7473 891.797 46.6145C895.863 34.4154 899.93 24.1999 903.897 24.1999C906.178 24.1999 906.971 25.9851 906.971 27.9687C906.971 31.3408 909.153 33.0269 912.327 29.8531C915.997 26.2827 919.964 24.1999 924.328 24.1999C929.188 24.1999 931.965 26.8777 932.956 30.4482C933.254 31.7376 933.948 32.1343 935.436 30.4482C939.205 26.2827 943.47 24.0015 948.23 24.0015C955.966 24.0015 958.842 28.1671 958.842 33.1261C958.842 38.3826 955.669 41.5564 955.669 46.5154C955.669 49.9867 957.156 51.6727 960.529 51.6727C963.504 51.6727 965.388 49.5899 967.372 46.6145C968.959 44.2342 972.926 47.2096 971.835 49.094C968.661 54.5489 961.917 73.7898 948.528 73.7898C942.18 73.7898 939.998 68.93 939.998 63.2768C939.998 55.7391 944.164 49.094 944.164 45.0277C944.164 42.7465 942.676 41.5564 940.395 41.5564C934.643 41.5564 929.684 49.7883 929.684 57.2268C929.684 60.103 930.378 61.0948 930.378 63.971C930.378 68.1366 928.989 73.5915 921.551 73.5915C916.989 73.5915 913.616 71.5087 913.616 64.9628C913.616 57.4252 918.575 50.6809 918.575 45.6227C918.575 42.9449 917.088 41.7547 914.807 41.7547C909.054 41.7547 904.095 49.9867 904.095 58.8137V63.2768C904.095 68.3349 902.806 73.7898 895.764 73.7898Z" fill="#F6A09E"/>
<path d="M984.998 20.1335C980.237 20.1335 976.27 18.3483 976.27 13.0917C976.27 6.04997 980.733 3.96719 986.188 3.96719C991.246 3.96719 995.313 5.85161 994.817 12.0008C994.222 18.1499 990.155 20.1335 984.998 20.1335ZM973.989 73.7898C967.344 73.7898 964.865 68.3349 964.865 61.3923C964.865 56.7309 965.856 51.3752 967.344 46.6145C971.906 32.2335 975.973 24.1999 981.626 24.1999C983.709 24.1999 984.998 25.4892 984.998 28.663C984.998 34.713 980.535 41.2588 980.535 46.6145C980.535 49.8875 982.32 51.5735 984.998 51.5735C987.973 51.5735 989.858 49.5899 991.841 46.6145C993.428 44.2342 997.296 47.2096 996.305 48.9949C993.131 54.3506 986.783 73.7898 973.989 73.7898Z" fill="#F6A09E"/>
<path d="M104.357 20.3394C99.2347 20.3394 94.9661 18.4621 94.9661 12.9344C94.9661 5.52954 99.7683 3.33936 105.638 3.33936C111.08 3.33936 115.456 5.32095 114.922 11.7872C114.282 18.2535 109.906 20.3394 104.357 20.3394Z" fill="#B5D782"/>
<path d="M722.11 20.3394C716.988 20.3394 712.719 18.4621 712.719 12.9344C712.719 5.52954 717.521 3.33936 723.391 3.33936C728.833 3.33936 733.208 5.32095 732.675 11.7872C732.035 18.2535 727.659 20.3394 722.11 20.3394Z" fill="#B5D782"/>
<path d="M985.11 20.3394C979.987 20.3394 975.719 18.4621 975.719 12.9344C975.719 5.52954 980.521 3.33936 986.39 3.33936C991.833 3.33936 996.208 5.32095 995.675 11.7872C995.034 18.2535 990.659 20.3394 985.11 20.3394Z" fill="#B5D782"/>
</svg>
