<?xml version="1.0" encoding="UTF-8"?>
<svg id="Layer_2" xmlns="http://www.w3.org/2000/svg" viewBox="0 0 2447.36 212.89">
  <defs>
    <style>
      .cls-1 {
        fill: #f39f9c;
      }
    </style>
  </defs>
  <g id="Layer_1-2" data-name="Layer_1">
    <path class="cls-1" d="M0,94.18c4.71-.81,9.15-2.58,13.72-3.86,12.22-3.43,24.37-7.08,36.61-10.44,15.68-4.31,31.39-8.54,47.14-12.59,12.09-3.11,24.25-5.94,36.39-8.82,9.55-2.27,19.1-4.53,28.69-6.61,16.17-3.5,32.32-7.08,48.59-10.12,11.3-2.11,22.56-4.47,33.88-6.5,13.95-2.51,27.94-4.83,41.92-7.16,15.94-2.66,31.9-5.12,47.93-7.18,14.75-1.89,29.48-3.99,44.24-5.8,11.49-1.41,23.02-2.58,34.54-3.75,15.78-1.59,31.56-3.17,47.36-4.58,9.39-.84,18.8-1.39,28.21-1.96,13.87-.85,27.74-1.77,41.62-2.34,13.5-.55,27-1.3,40.52-1.48,6.75-.09,13.52-.07,20.27-.42,19.4-.99,38.81-.46,58.21-.38,15.11.06,30.23.45,45.32,1.17,12.4.6,24.81,1.02,37.2,1.76,17.44,1.04,34.87,2.23,52.28,3.63,14.33,1.15,28.65,2.53,42.95,4.09,16.05,1.75,32.07,3.88,48.11,5.72,18.13,2.08,36.18,4.78,54.23,7.38,13.05,1.88,26.01,4.43,39.07,6.32,16.98,2.46,33.82,5.66,50.72,8.54,15.03,2.56,29.98,5.64,44.99,8.37,17.16,3.13,34.27,6.49,51.38,9.89,11.95,2.37,23.93,4.57,35.86,7.03,12.91,2.66,25.89,4.98,38.84,7.42,23.86,4.5,47.69,9.14,71.59,13.43,20.39,3.66,40.8,7.22,61.25,10.58,16.72,2.75,33.46,5.42,50.21,7.94,12.15,1.82,24.31,3.7,36.54,5.06,11.72,1.3,23.38,3.13,35.09,4.52,11.71,1.39,23.44,2.57,35.17,3.77,13.52,1.38,27.04,2.77,40.57,4,8.78.79,17.59,1.31,26.4,1.91,14.35.98,28.7,2.02,43.05,2.83,8.53.48,17.1.44,25.63.88,14.2.74,28.42.82,42.62,1.26,25.28.78,50.56.44,75.84.23,8.92-.07,17.86-.2,26.78-.52,15.09-.54,30.19-.97,45.26-1.88,9.91-.59,19.83-.94,29.72-1.76,16.11-1.33,32.24-2.35,48.34-3.79,11.76-1.05,23.52-2.15,35.27-3.29,14.69-1.43,29.35-3.31,44-5.1,12.69-1.55,25.39-3.13,38.05-4.92,16.2-2.28,32.39-4.62,48.53-7.24,16.05-2.6,32.07-5.43,48.05-8.4,18.13-3.37,36.24-6.88,54.3-10.58,15.06-3.09,30.05-6.49,45.05-9.86,14.41-3.23,28.81-6.49,43.17-9.95,11.18-2.7,22.3-5.65,33.42-8.62,19.45-5.19,38.93-10.31,58.3-15.79,16.21-4.59,32.41-9.21,48.45-14.39,12.65-4.09,25.4-7.87,38.07-11.92,1.91-.61,2.42.03,2.94,1.61,7.31,22.59,14.66,45.16,21.97,67.75.98,3.01,1.78,6.08,2.77,9.09.45,1.36.1,1.82-1.29,2.24-21.63,6.63-43.19,13.49-64.86,19.96-17.01,5.08-34.13,9.77-51.25,14.5-22.45,6.2-44.98,12.16-67.64,17.55-24.31,5.78-48.65,11.42-73.03,16.87-15.29,3.42-30.63,6.64-46.03,9.48-19.3,3.56-38.58,7.29-57.95,10.47-17.98,2.95-35.96,5.95-53.99,8.62-16.86,2.5-33.75,4.73-50.65,6.86-19.29,2.43-38.6,4.66-57.96,6.54-17.86,1.74-35.7,3.52-53.6,4.77-12.08.84-24.16,1.73-36.24,2.46-11.7.71-23.38,1.39-35.1,1.79-9.83.34-19.66.67-29.48,1.21-8.85.49-17.7.18-26.54.53-26.18,1.05-52.36.5-78.54.34-9.94-.06-19.9-.12-29.83-.56-9.92-.44-19.85-.81-29.77-1.2-15.28-.59-30.55-1.42-45.81-2.4-15.93-1.02-31.85-2.17-47.75-3.59-16.99-1.52-33.95-3.39-50.91-5.18-12.92-1.37-25.85-2.72-38.75-4.32-12.49-1.55-24.95-3.38-37.42-5.14-14.32-2.02-28.64-4.02-42.94-6.18-9.8-1.48-19.56-3.2-29.34-4.81-10.76-1.77-21.53-3.44-32.27-5.32-12.1-2.12-24.18-4.42-36.26-6.64-11.69-2.15-23.39-4.23-35.07-6.45-13.25-2.51-26.47-5.14-39.7-7.71-15.28-2.96-30.56-5.9-45.83-8.86-11.29-2.19-22.58-4.45-33.88-6.59-21.03-3.99-42.06-8-63.12-11.85-18.04-3.3-36.1-6.5-54.18-9.56-18.08-3.06-36.16-6.16-54.32-8.75-18.45-2.63-36.9-5.32-55.41-7.53-17.53-2.09-35.05-4.12-52.62-5.87-13.52-1.35-27.06-2.5-40.6-3.63-15.43-1.29-30.88-2.21-46.35-2.95-7.94-.38-15.88-.66-23.81-1.16-14.49-.9-29-.89-43.5-1.36-3.67-.12-7.36.11-11.04.12-5.27.01-10.55-.43-15.79-.33-17,.33-34.01.21-51.01.53-10.62.2-21.25.7-31.86,1.17-11.61.52-23.22,1.07-34.82,1.79-13.87.86-27.73,1.82-41.57,2.94-13.12,1.06-26.23,2.19-39.31,3.62-14.98,1.64-29.96,3.3-44.93,5.07-17.03,2.02-34.02,4.37-50.99,6.81-20.29,2.91-40.51,6.28-60.7,9.82-21.3,3.74-42.52,7.8-63.68,12.21-17.27,3.59-34.48,7.52-51.69,11.44-21.45,4.9-42.76,10.35-64.02,16.01-19.08,5.08-38.08,10.43-56.99,16.1-2.75.83-5.57,1.46-8.28,2.43-1.9.68-2.62.2-3.18-1.68-3.04-10.24-6.22-20.44-9.31-30.67-4.27-14.11-8.48-28.24-12.81-42.34-.48-1.57-.46-3.35-1.63-4.69v-1.19Z"/>
  </g>
</svg>