<svg width="85" height="94" viewBox="0 0 85 94" fill="none" xmlns="http://www.w3.org/2000/svg">
<g clip-path="url(#clip0_132_2382)">
<path d="M39.194 43.7852C50.3121 43.7852 61.3973 43.7852 72.5154 43.7852C73.2742 43.7852 74.033 43.7852 74.7588 43.9158C77.662 44.5035 78.9157 46.7891 78.7837 48.8788C78.2559 57.564 76.2104 65.7268 71.1297 72.9753C68.3584 76.9261 65.0263 80.3545 61.0014 83.0645C60.1106 83.6522 59.7477 84.3053 59.8137 85.3828C59.9126 86.7215 59.9126 88.0602 59.8137 89.3988C59.6487 91.5865 58.0651 93.1537 55.8217 93.2843C54.634 93.3823 53.4133 93.3496 52.1926 93.3496C43.285 93.3496 34.4103 93.3496 25.5026 93.3496C24.8428 93.3496 24.1829 93.3496 23.5561 93.2843C21.2467 93.0884 19.6631 91.5212 19.5641 89.2356C19.4981 87.9949 19.4981 86.7541 19.5641 85.5134C19.5971 84.6318 19.3332 84.0767 18.5744 83.5543C9.20481 77.122 3.53028 68.2736 1.1549 57.3354C0.528064 54.4948 0.396098 51.5562 0.0331926 48.6502C-0.26373 46.234 1.84772 43.7199 4.84994 43.7199C16.298 43.7852 27.746 43.7199 39.227 43.7199L39.194 43.7852ZM5.11387 48.6829C5.11387 49.4012 5.11387 49.8583 5.11387 50.3481C5.57575 56.4865 7.15934 62.2658 10.3265 67.5879C13.2957 72.5835 17.1228 76.7955 22.0055 80.028C23.721 81.1708 25.5026 81.6932 27.647 81.6605C36.0928 81.5299 44.5386 81.5952 52.9844 81.5299C53.8092 81.5299 54.7 81.3667 55.4258 80.9749C60.0776 78.526 63.8056 75.0323 66.8079 70.755C70.6678 65.3023 72.8123 59.2292 73.6041 52.6663C73.769 51.3929 73.802 50.1195 73.934 48.6176C50.939 48.6176 28.1089 48.6176 5.11387 48.6176V48.6829ZM39.6889 88.8111C43.7138 88.8111 47.7388 88.8111 51.7308 88.8111C52.4896 88.8111 53.2484 88.8111 53.9742 88.8111C54.9969 88.7785 55.2938 88.4193 55.2279 87.4398C55.1619 86.4929 54.832 86.1337 53.8092 86.1011C53.3144 86.1011 52.8195 86.1011 52.2916 86.1011C44.2417 86.1011 36.2248 86.1664 28.1749 86.199C27.2181 86.199 26.2614 86.199 25.3046 86.199C24.3479 86.2317 24.1829 86.4276 24.1169 87.3418C24.051 88.452 24.3809 88.8111 25.6016 88.8111C30.2863 88.8111 34.9381 88.8111 39.6229 88.8111H39.6889Z" fill="#FDF8CF"/>
<path d="M42.9553 22.5293C42.0975 24.0313 41.4377 25.5332 40.448 26.8393C36.7199 31.9328 31.5733 34.0878 25.2719 33.5981C18.3437 33.0103 12.3393 28.733 10.4918 21.9089C7.6215 11.2647 13.8239 2.38357 23.7873 0.261243C29.8577 -1.01215 38.9634 2.12236 42.4275 10.2851C42.5264 10.5137 42.6254 10.7423 42.6914 10.9708C42.9223 11.7544 43.3842 12.1136 44.242 12.0157C44.8358 11.9503 45.4297 11.983 46.0565 11.983C56.9437 11.9177 67.8639 11.885 78.751 11.8197C80.7965 11.8197 82.3471 12.5707 83.4358 14.2686C85.2833 17.1745 83.8977 21.1253 80.5985 22.2028C79.7078 22.4967 78.751 22.6599 77.7943 22.6599C67.237 22.6599 56.7127 22.562 46.1555 22.4967C45.0998 22.4967 44.044 22.4967 42.9553 22.4967V22.5293ZM39.1613 16.097C38.5675 16.195 38.0726 16.3583 37.5777 16.3256C35.6972 16.0644 33.8167 15.444 32.1341 16.8807C32.0022 16.9786 31.7382 16.946 31.4743 17.0113C31.2764 16.195 30.6825 15.9991 29.8907 16.0317C28.802 16.097 27.6803 16.0317 26.6246 16.0317C25.6348 17.4031 25.5029 17.4031 24.3152 16.4236C24.0842 16.2276 23.7213 16.097 23.3914 16.0644C22.8305 15.9991 22.3027 16.0644 21.7418 16.0644C21.016 16.0644 20.3562 16.0317 19.7953 16.7827C19.2345 17.5337 18.6736 17.3704 18.0798 16.4562C18.0138 16.3256 17.9148 16.2276 17.8818 16.1623H14.2858C13.23 20.8641 16.3642 25.4679 20.0263 27.8515C23.9193 30.3656 30.6495 30.2676 34.5095 27.2637C38.3035 24.2925 40.151 18.9703 39.1613 16.1297V16.097ZM38.4025 12.4401C36.8189 7.08533 31.0124 3.49371 25.1729 4.11408C20.4552 4.60384 15.1435 8.94645 14.9456 12.4401H38.4025ZM43.7471 18.4806C44.8358 18.4806 45.7266 18.4806 46.6504 18.4806C54.7003 18.4806 62.7172 18.4806 70.7671 18.5459C73.1755 18.5459 75.5838 18.6438 77.9922 18.7091C79.1799 18.7091 79.6748 18.2847 79.7078 17.3378C79.7408 16.3583 79.4438 16.097 78.1572 16.097C67.0721 16.1623 55.9539 16.2603 44.8688 16.3256C44.5389 16.3256 44.209 16.4236 43.7801 16.4562V18.4806H43.7471Z" fill="#FDF8CF"/>
<path d="M36.9175 19.4274C36.2906 19.9498 35.8947 20.309 35.3669 20.7987C34.938 20.5049 34.4761 20.1784 33.9482 19.7865C34.3111 19.1988 34.5751 18.7091 34.971 18.056C35.6308 18.5131 36.1587 18.905 36.9505 19.4274H36.9175Z" fill="#FDF8CF"/>
<path d="M21.3125 23.019C20.7516 23.4435 20.2568 23.77 19.7949 24.0965C19.8939 24.2271 19.9928 24.3904 20.1248 24.521C19.498 24.3904 18.8711 24.0965 19.0031 23.3129C19.1021 22.8558 19.498 22.2028 19.8939 22.1048C20.6857 21.9089 21.0486 22.6272 21.3125 23.019Z" fill="#FDF8CF"/>
<path d="M22.5667 18.3826C23.0945 18.807 23.5564 19.1662 24.1833 19.6886C23.5234 20.1457 23.0615 20.6355 22.4677 20.8314C22.2698 20.8967 21.6429 20.2763 21.5109 19.8519C21.346 19.1988 21.8739 18.807 22.5337 18.3826H22.5667Z" fill="#FDF8CF"/>
<path d="M27.8447 23.4435C27.4158 23.77 26.9869 24.0965 26.5251 24.4557C25.8322 24.2598 25.3044 23.868 25.4363 23.117C25.5023 22.7578 25.8652 22.2028 26.1951 22.1374C26.9209 21.9742 27.3828 22.5293 27.8447 23.4435Z" fill="#FDF8CF"/>
<path d="M25.3374 26.5127C24.7105 27.1657 24.3146 27.5902 23.9517 27.982C22.4341 27.133 22.3682 26.8718 23.3909 25.5005C23.9517 25.7943 24.5126 26.0882 25.3374 26.5127Z" fill="#FDF8CF"/>
<path d="M28.9668 20.6682C28.142 20.4722 27.5812 20.0478 27.7461 19.2315C27.8121 18.905 28.307 18.4152 28.6039 18.4152C29.0328 18.4152 29.6596 18.7091 29.7916 19.0356C30.1545 19.8192 29.4947 20.2437 28.9338 20.6355L28.9668 20.6682Z" fill="#FDF8CF"/>
<path d="M31.3092 26.9698C30.9463 27.1984 30.6494 27.3616 30.3854 27.5575C30.2865 27.6228 30.1875 27.7861 30.0555 27.9493C29.4617 27.5249 28.9008 27.1331 29.1318 26.3168C29.2307 26.0229 29.6596 25.5984 29.9236 25.5984C30.6824 25.5984 31.1772 26.0556 31.3092 26.9698Z" fill="#FDF8CF"/>
<path d="M31.54 23.3455C31.837 22.8557 32.1009 22.3986 32.4638 21.7783C33.0906 22.268 33.6185 22.6272 34.1464 23.019C32.7937 24.3904 32.7937 24.3904 31.573 23.3455H31.54Z" fill="#FDF8CF"/>
<path d="M17.9147 19.8193C17.2878 20.2764 16.8259 20.6029 16.3971 20.9294C15.8032 20.2111 15.7372 19.4927 16.1991 18.7744C16.694 19.1009 17.2218 19.3948 17.8817 19.8519L17.9147 19.8193Z" fill="#FDF8CF"/>
</g>
<defs>
<clipPath id="clip0_132_2382">
<rect width="84.2271" height="93.3823" fill="white"/>
</clipPath>
</defs>
</svg>
