<svg width="79" height="98" viewBox="0 0 79 98" fill="none" xmlns="http://www.w3.org/2000/svg">
<g clip-path="url(#clip0_132_2400)">
<path d="M39.3843 47.8774C50.8052 47.8774 62.1925 47.8774 73.6135 47.8774C73.9504 47.8774 74.2873 47.8774 74.6242 47.8774C77.1173 48.0132 79.004 50.0151 78.7345 52.5261C78.2628 56.9032 77.69 61.2804 76.3424 65.5219C73.5462 74.378 68.3915 81.5376 60.9123 86.9666C60.0701 87.5774 59.6658 88.1542 59.7668 89.24C59.8679 90.3598 59.8005 91.4795 59.7668 92.5993C59.6995 95.1441 57.8802 96.9764 55.3197 97.0104C51.2095 97.0443 47.0993 97.0104 42.9891 97.0104C36.4195 97.0104 29.8499 97.0104 23.2803 97.0104C21.5621 97.0104 20.2819 96.2639 19.4396 94.8387C19.0691 94.2619 18.9006 93.4815 18.8332 92.8028C18.7322 91.5813 18.7322 90.3598 18.8332 89.1722C18.9006 88.256 18.53 87.6792 17.8225 87.1023C15.8011 85.4397 13.746 83.811 11.9267 81.9447C5.99725 75.8031 2.45978 68.406 0.910027 60.0589C0.573125 58.2605 0.370983 56.3943 0.168842 54.562C0.0677713 53.7476 0.0340811 52.8993 0.101462 52.085C0.269913 49.608 1.88704 47.9453 4.38012 47.8435C6.03094 47.7757 7.68176 47.8435 9.29889 47.8435C19.3386 47.8435 29.412 47.8435 39.4516 47.8435L39.3843 47.8774ZM4.81809 52.4921C4.81809 53.1708 4.81809 53.6458 4.81809 54.1209C5.1213 58.5998 6.09832 62.977 7.78283 67.1166C10.5117 73.7672 14.723 79.2981 20.6862 83.4038C22.6065 84.7271 24.6279 85.4058 27.02 85.3718C35.712 85.2361 44.4041 85.2022 53.0962 85.2022C54.3764 85.2022 55.4545 84.8629 56.4989 84.2182C60.5754 81.7412 63.9108 78.4837 66.6733 74.6155C70.5814 69.1186 72.6365 62.9091 73.5462 56.2585C73.7146 55.037 73.782 53.7815 73.9167 52.4921H4.81809ZM23.2803 89.9865C22.8424 92.3957 23.2803 92.9725 25.4702 92.8707C26.2451 92.8368 27.0199 92.7689 27.7948 92.7689C36.4195 92.8028 45.0779 92.8707 53.7026 92.9386C54.7807 92.9386 55.0839 92.7011 55.185 91.6492C55.286 90.3598 54.8818 89.8508 53.6015 89.7829C53.3657 89.7829 53.1299 89.7829 52.894 89.7829C43.6292 89.7829 34.3644 89.8508 25.0996 89.8847C24.5269 89.8847 23.9541 89.9526 23.314 89.9865H23.2803Z" fill="#FDF8CF"/>
<path d="M33.4887 8.92394C33.3539 10.6544 33.2192 12.4189 33.0507 14.1494C32.9833 14.9638 33.1855 15.6085 33.7919 16.2192C35.3753 17.8819 36.285 19.9178 36.285 22.259C36.285 25.3807 36.1839 28.4685 36.1839 31.5902C36.1839 32.5403 35.7459 33.185 34.9711 33.5583C32.478 34.7119 29.9512 35.8656 27.4244 36.8836C26.9191 37.0871 26.1779 36.9853 25.6052 36.8157C18.7661 34.6101 11.9269 32.3707 5.12151 30.0972C3.40331 29.5204 3.1001 29.0793 3.1001 27.2131C3.1001 23.4806 3.13379 19.7142 3.1001 15.9817C3.1001 14.862 3.36962 13.8779 4.1108 13.0297C5.18889 11.7742 6.23329 10.5187 7.37876 9.33111C8.22101 8.44889 8.79375 7.53274 8.9622 6.3112C9.13065 5.0218 9.46755 3.7324 9.56862 2.44301C9.66969 0.81429 11.3879 -0.441179 13.1061 0.16959C19.0356 2.20548 25.0324 4.07172 30.9956 6.00582C31.3325 6.10761 31.6357 6.20941 31.9389 6.34514C33.1855 6.88804 33.6234 7.6006 33.4887 8.95787V8.92394ZM27.9972 16.3889C22.7078 13.5386 16.9468 12.5885 11.489 10.3491C10.1077 11.9438 8.69267 13.4708 7.41245 15.0656C7.07554 15.5067 6.94078 16.2192 6.90709 16.83C6.8734 18.5944 6.90709 20.3249 6.90709 22.0894C6.90709 23.6842 6.90709 25.279 6.90709 26.9077C12.7018 28.8078 18.3955 30.708 24.3249 32.4724C24.3249 31.692 24.3249 31.1491 24.3249 30.6401C24.3249 28.0613 24.3586 25.4825 24.3249 22.9037C24.3249 21.2072 24.864 19.782 26.0094 18.5605C26.6496 17.9158 27.2223 17.2032 27.9298 16.4567L27.9972 16.3889ZM12.567 7.0577C18.2607 8.89 23.8196 10.6544 29.4122 12.4528C29.5469 11.4349 29.648 10.5527 29.7828 9.5347C24.2576 7.73633 18.7324 5.93796 13.0724 4.13958C12.8703 5.22539 12.7355 6.10761 12.567 7.0577ZM30.8945 18.7641C30.3555 19.3749 29.9512 19.8838 29.4795 20.291C28.4688 21.2072 28.0982 22.3269 28.0982 23.6842C28.0982 26.263 28.0646 28.8418 28.0309 31.4206C28.0309 31.692 28.0982 31.9635 28.1319 32.3707C29.3448 31.8956 30.3892 31.4545 31.4673 31.0473C32.1748 30.8098 32.3769 30.3348 32.3769 29.6222C32.3769 27.8238 32.3769 26.0254 32.5454 24.2271C32.7475 22.1912 32.04 20.5285 30.8272 18.7641H30.8945Z" fill="#FDF8CF"/>
<path d="M41.237 26.6024C41.6749 26.9756 42.1129 27.281 42.4835 27.6203C45.0103 30.0634 46.8969 32.9476 47.5707 36.4086C48.1772 39.4964 46.6611 41.634 43.9659 42.5163C41.237 43.3646 38.2049 41.3626 37.9353 38.5123C37.8006 36.9854 38.1038 35.5264 38.6091 34.1012C39.4851 31.6921 40.3273 29.283 41.2707 26.6024H41.237Z" fill="#FDF8CF"/>
</g>
<defs>
<clipPath id="clip0_132_2400">
<rect width="78.7341" height="97.0443" fill="white"/>
</clipPath>
</defs>
</svg>
