<svg width="79" height="98" viewBox="0 0 79 98" fill="none" xmlns="http://www.w3.org/2000/svg">
<g clip-path="url(#clip0_132_2396)">
<path d="M23.1728 47.7536C22.6646 47.2189 22.1226 46.6508 21.6144 46.1161C19.9543 44.4118 18.6669 42.4736 18.0571 40.2012C16.7358 35.3557 18.0571 31.4124 22.1564 28.3046C25.5104 25.7983 29.1354 23.7264 32.9976 22.0556C33.7768 21.7214 34.556 21.287 35.5046 20.8191C34.8948 19.9503 34.3866 19.2819 33.9123 18.6136C34.9626 17.0429 37.2324 16.0738 39.0958 16.6419C40.1799 16.9761 40.8575 16.7756 41.6367 15.9736C46.5152 11.1949 51.4954 6.4496 56.4078 1.70432C56.5433 1.57065 56.6788 1.43698 56.8143 1.30331C58.8132 -0.46781 60.27 -0.467811 62.1333 1.40357C64.8774 4.1438 67.6216 6.91745 70.3658 9.65768C71.0095 10.326 71.5854 11.0278 71.6871 11.9969C71.8565 13.3002 71.416 14.3027 70.4674 15.2384C65.3518 20.2176 60.27 25.2302 55.1882 30.2428C54.8494 30.577 54.5106 30.9112 54.104 31.3456C55.5947 33.9856 54.8155 36.1243 52.5456 38.0291C52.0713 37.5947 51.597 37.1602 50.9872 36.6256C48.7173 40.2347 46.9217 43.9774 45.1939 48.0543C45.9054 48.0543 46.4813 48.0543 47.0234 48.0543C55.8318 48.0543 64.6403 48.0543 73.4488 48.0543C74.0247 48.0543 74.6345 48.0543 75.2104 48.1546C77.5142 48.6559 78.8693 50.3267 78.7338 52.7996C78.4628 58.2467 77.5142 63.5935 75.4476 68.7063C72.3646 76.3255 67.3167 82.3407 60.5749 87.0525C59.8973 87.5204 59.5924 87.9882 59.6601 88.8236C59.7618 90.1269 59.7618 91.4302 59.6601 92.7335C59.4907 95.2732 57.7629 96.9107 55.1882 96.9775C53.3248 97.0443 51.4615 96.9441 49.5982 96.9775C41.3656 96.9775 33.167 97.0109 24.9345 97.0443C24.1892 97.0443 23.4777 97.0443 22.7324 96.9775C20.7335 96.777 18.6669 95.0393 18.7686 92.7001C18.8363 91.5305 18.7008 90.3943 18.7686 89.2247C18.8363 88.2221 18.4298 87.6206 17.6506 87.0859C14.4321 84.847 11.6202 82.207 9.18089 79.1326C3.96358 72.5159 1.05001 65.0304 0.203045 56.7429C0.0675299 55.4062 -0.101864 54.0695 -0.135742 52.6994C-0.135742 49.9257 1.65983 48.0543 4.50564 48.0543C10.1295 48.0209 15.7534 48.0543 21.3772 48.0543C21.8515 48.0543 22.3597 48.0543 22.834 48.0543C22.9018 47.9541 22.9695 47.8538 23.0373 47.7536H23.1728ZM73.8892 52.7996C73.2116 52.7996 72.6018 52.7996 71.9581 52.7996C56.9837 52.7996 42.0093 52.7996 27.035 52.7996C20.1237 52.7996 13.2463 52.833 6.33509 52.8665C5.82691 52.8665 5.31873 52.9333 4.70891 53.0001C4.91218 54.6042 5.0477 56.0411 5.21709 57.4781C6.4706 66.835 10.5699 74.7215 17.7522 80.9705C19.4123 82.4409 21.4111 83.5437 23.2744 84.7467C24.0198 85.2146 24.8667 85.3816 25.7815 85.3816C34.9287 85.3148 44.0759 85.2814 53.2232 85.248C54.2734 85.248 55.222 84.9806 56.1367 84.4125C60.9136 81.5721 64.7419 77.7625 67.7571 73.1843C71.6532 67.2694 73.4488 60.6861 73.9231 53.6685C73.9231 53.4346 73.8892 53.2006 73.8214 52.833L73.8892 52.7996ZM51.2921 27.3689C56.2723 22.3897 61.1169 17.5776 66.0971 12.6318C63.895 10.326 61.5235 7.88655 59.0164 5.27999C53.9346 10.2926 49.0222 15.1381 44.0082 20.0505C46.5491 22.5902 48.9206 24.9963 51.2921 27.3689ZM28.153 46.35C28.6611 46.0159 29.1016 45.7485 29.542 45.4478C32.5233 43.4093 35.3691 41.2372 37.4357 38.2296C39.4007 35.4225 41.3656 32.6155 43.3306 29.8084C43.5339 29.5411 43.7371 29.2403 43.8388 28.9396C43.9065 28.739 43.8388 28.4717 43.8049 28.0707C43.3984 28.3046 43.1273 28.4049 42.9241 28.572C38.9941 31.6798 35.0642 34.7208 31.1682 37.8954C29.7791 39.0316 28.4917 40.3015 27.3399 41.6716C25.5104 43.8772 25.7137 44.6123 28.153 46.4169V46.35ZM22.6646 40.7359C22.9695 40.3683 23.1728 40.1678 23.3422 39.9673C25.6121 37.0266 28.2546 34.4869 31.202 32.2145C33.9801 30.0757 36.7581 27.9704 39.5362 25.8317C39.8411 25.5978 40.1799 25.4641 40.4848 25.2636C39.4007 23.9938 39.4007 23.9938 38.3166 24.3948C35.403 25.4307 32.6927 26.8677 30.1179 28.5051C27.9836 29.8752 25.9508 31.3456 23.9181 32.8828C22.3597 34.0524 21.6821 35.7567 21.5805 37.6949C21.5127 38.7643 21.7499 39.7668 22.6646 40.7359ZM39.2313 89.6925C36.4532 89.6925 33.6413 89.6925 30.8633 89.6925C28.7628 89.6925 26.6623 89.6925 24.5618 89.6925C23.4777 89.6925 23.0034 90.4277 23.3761 91.4302C23.6132 92.0317 24.0198 92.3325 24.6973 92.2991C26.8994 92.2322 29.1016 92.1654 31.3037 92.1654C36.521 92.1654 41.7722 92.1988 46.9895 92.2322C49.1916 92.2322 51.3937 92.2991 53.5958 92.2322C54.6461 92.2322 55.0188 91.7978 54.9849 90.7953C54.9849 89.8262 54.7816 89.6591 53.5958 89.6257C53.2909 89.6257 53.0199 89.6257 52.715 89.6257C48.2091 89.6257 43.7033 89.6257 39.2313 89.6257V89.6925ZM46.854 31.5461C45.9731 32.8828 45.0923 34.1527 44.2792 35.4894C41.5012 40.0676 38.2149 44.2447 33.8107 47.4528C33.6752 47.5531 33.6074 47.7202 33.3364 48.0878C34.8609 48.0878 36.1144 48.0878 37.368 48.0878C38.486 48.0878 39.604 47.9541 40.6881 47.8872C41.1963 46.8513 41.8061 45.8488 42.2126 44.7794C43.6016 41.2706 44.9907 37.7952 46.9217 34.5537C47.2944 33.9522 47.6332 33.3172 48.0059 32.6823C47.5993 32.2813 47.2267 31.9805 46.8201 31.5795L46.854 31.5461Z" fill="#FDF8CF"/>
</g>
<defs>
<clipPath id="clip0_132_2396">
<rect width="78.7341" height="97.0443" fill="white"/>
</clipPath>
</defs>
</svg>
