<svg width="81" height="101" viewBox="0 0 81 101" fill="none" xmlns="http://www.w3.org/2000/svg">
<g clip-path="url(#clip0_132_2406)">
<path d="M40.3004 51.0575C52.0756 51.0575 63.8866 51.0575 75.6617 51.0575C79.0261 51.0575 80.8514 53.0293 80.5293 56.2688C79.9208 62.607 78.5966 68.7691 75.7691 74.5439C72.6195 80.9877 68.1099 86.3399 62.0612 90.3893C61.2023 90.9527 60.8444 91.5513 60.9159 92.5372C60.9875 93.664 60.9517 94.7908 60.9159 95.9176C60.8444 98.8402 58.9474 100.706 56.0126 100.706C45.4185 100.706 34.8244 100.706 24.2304 100.706C21.2239 100.706 19.3986 98.9106 19.327 95.9528C19.327 94.826 19.2912 93.6992 19.327 92.5724C19.3986 91.6921 19.0407 91.1639 18.2891 90.6358C13.4215 87.3258 9.44877 83.1708 6.40655 78.1355C2.36219 71.41 0.286326 64.0507 0 56.1984C0 55.4238 0.0357908 54.6139 0.250536 53.8744C0.751607 52.0786 2.39798 50.987 4.47385 51.0223C9.87826 51.0223 15.2469 51.0575 20.6513 51.0927C27.201 51.0927 33.7507 51.0927 40.3004 51.0927V51.0575ZM5.0465 55.7407C5.0465 56.0224 4.97492 56.2336 4.97492 56.4097C5.29704 61.7267 6.33497 66.9029 8.62558 71.7621C11.632 78.1355 15.9627 83.3821 21.9755 87.2906C23.6935 88.4174 25.483 88.9456 27.5947 88.9104C36.3992 88.7695 45.168 88.7695 53.9725 88.7343C55.1894 88.7343 56.1915 88.3822 57.2295 87.8188C61.238 85.5652 64.5308 82.537 67.3583 78.9806C71.9753 73.1354 74.4806 66.4451 75.4112 59.1562C75.5544 58.0647 75.6617 56.9379 75.7691 55.7407H5.0465ZM55.7263 96.3753C56.7284 93.9105 56.3705 93.3823 53.9367 93.3471C53.2925 93.3471 52.6483 93.3471 52.004 93.3471C45.4543 93.3471 38.9404 93.3823 32.3907 93.4175C30.0285 93.4175 27.7021 93.4175 25.3399 93.4175C24.0514 93.4175 23.6577 93.9105 23.9082 95.1781C24.123 96.2345 24.4093 96.4105 25.7336 96.4105C35.2181 96.4105 44.7027 96.3753 54.1873 96.3401C54.7241 96.3401 55.261 96.3401 55.7263 96.3401V96.3753Z" fill="#FDF8CF"/>
<path d="M45.5264 20.0005C47.316 18.4511 49.0697 16.9722 50.7519 15.4581C55.9773 10.8101 61.2028 6.16214 66.3567 1.44373C68.2894 -0.316873 70.8305 -0.387297 72.6558 0.809911C74.7317 2.18318 75.7339 4.96493 74.7675 7.14807C74.4454 7.85231 73.9085 8.48613 73.3001 8.9791C69.4347 12.3595 65.4977 15.7398 61.5965 19.1202C58.5543 21.7611 55.5121 24.3667 52.4698 27.0076C52.2909 27.1837 52.1119 27.3598 51.9688 27.5358C52.0046 27.6767 52.0046 27.8175 52.0761 27.8527C54.5099 29.5077 54.3668 31.9725 54.0089 34.367C53.7583 36.198 52.4341 37.4304 50.7519 38.1346C49.7855 38.522 49.356 39.0854 49.3203 40.0713C49.2129 42.3601 46.7075 44.9658 44.1664 44.6489C43.5221 44.5784 43.1642 44.8249 42.8779 45.4235C41.3389 48.8039 37.1156 49.6138 34.145 48.7335C32.427 48.2053 30.9238 47.4306 29.7069 46.0926C27.1658 43.3108 24.6962 40.4938 22.0835 37.7825C19.5781 35.1768 20.795 29.4725 25.0183 28.3105C26.1636 27.9936 26.7721 27.5006 26.951 26.3034C27.2731 24.3315 28.3111 22.8174 30.3869 22.254C31.1027 22.0428 31.8544 21.9371 32.5702 21.8315C33.2144 21.7258 33.6081 21.5146 33.8944 20.8808C35.3261 17.9229 39.4062 16.4088 42.4484 17.6765C43.1284 17.9582 43.7011 18.4511 44.2738 18.9089C44.7032 19.2258 45.0254 19.6835 45.4191 20.0709L45.5264 20.0005ZM43.2716 40.6347C43.8801 40.7051 44.4527 40.4938 44.8822 39.8952C45.3475 39.2614 44.9538 38.7685 44.6675 38.2755C44.4169 37.8529 44.1306 37.4656 43.8085 37.0783C40.8378 33.6627 37.8314 30.2472 34.825 26.8668C34.4671 26.4443 33.8944 26.0921 33.3576 25.9161C32.4986 25.5992 31.6754 25.9513 31.1385 26.6907C30.6017 27.395 30.7448 28.064 31.2101 28.733C31.3891 28.9795 31.568 29.226 31.747 29.4373C33.3934 31.3387 35.0397 33.2402 36.7219 35.1064C38.0462 36.5853 39.4062 38.029 40.7663 39.4375C41.4105 40.1417 42.1979 40.6699 43.3074 40.6347H43.2716ZM38.9409 43.8742C38.7262 43.5573 38.6188 43.4164 38.5114 43.2756C35.5408 40.0361 32.606 36.7614 29.5995 33.5571C29.0627 32.9937 28.4184 32.5007 27.7742 32.0782C27.4879 31.9021 26.9868 31.8317 26.6647 31.9725C25.2688 32.4655 24.8394 33.8036 25.6268 35.0008C25.8415 35.3177 26.0562 35.6698 26.3426 35.9515C28.669 38.4515 30.9596 40.9868 33.3218 43.4164C33.9302 44.015 34.7176 44.5432 35.5408 44.8249C36.7577 45.2475 37.9746 45.001 38.9767 43.8742H38.9409ZM49.1055 24.4724C49.6424 24.085 50.0361 23.8034 50.4298 23.4864C55.9773 18.6976 61.5249 13.944 67.0367 9.11995C68.2178 8.0988 69.3631 6.97201 70.5084 5.88044C70.8663 5.52832 71.0095 5.14099 70.6158 4.71844C70.2937 4.36632 69.8642 4.22548 69.3989 4.47196C69.1126 4.64802 68.8262 4.85929 68.5757 5.10578C67.8957 5.66917 67.2514 6.26777 66.5714 6.86638C60.7733 11.8665 54.9752 16.9018 49.1771 21.9019C48.7476 22.2892 48.3539 22.7118 47.9244 23.1695C48.3539 23.6273 48.676 23.9794 49.1413 24.4724H49.1055ZM50.0361 32.6064C49.714 32.1134 49.3918 31.3387 48.855 30.7401C46.8149 28.3809 44.739 26.0921 42.6274 23.7681C41.9474 23.0287 41.2315 22.3597 40.5157 21.6906C40.2294 21.4441 39.6925 21.1272 39.5136 21.2329C38.8336 21.6202 38.1893 22.078 37.6882 22.6766C37.223 23.2048 37.7956 23.6977 38.1177 24.0851C39.0841 25.2118 40.0862 26.3034 41.0884 27.395C43.1284 29.6838 45.2043 31.9373 47.2802 34.1909C47.6023 34.543 47.9244 34.9656 48.5329 34.7895C49.1055 34.6134 50.0361 33.4867 50.0361 32.6064Z" fill="#FDF8CF"/>
</g>
<defs>
<clipPath id="clip0_132_2406">
<rect width="80.5651" height="100.706" fill="white"/>
</clipPath>
</defs>
</svg>
